<svg xmlns="http://www.w3.org/2000/svg" viewBox="0 0 500 500"><g id="freepik--background-complete--inject-35"><polygon points="47.48 198.55 98.11 198.31 148.74 198.22 250 198.06 351.26 198.22 401.89 198.31 452.52 198.55 401.89 198.8 351.26 198.89 250 199.05 148.74 198.89 98.11 198.8 47.48 198.55" style="fill:#ebebeb"></polygon><polygon points="47.48 233.14 98.11 232.9 148.74 232.81 250 232.64 351.26 232.81 401.89 232.89 452.52 233.14 401.89 233.38 351.26 233.47 250 233.64 148.74 233.47 98.11 233.38 47.48 233.14" style="fill:#ebebeb"></polygon><polygon points="47.48 267.72 98.11 267.48 148.74 267.39 250 267.22 351.26 267.39 401.89 267.48 452.52 267.72 401.89 267.97 351.26 268.06 250 268.22 148.74 268.05 98.11 267.97 47.48 267.72" style="fill:#ebebeb"></polygon><polygon points="47.48 302.31 98.11 302.06 148.74 301.98 250 301.81 351.26 301.98 401.89 302.06 452.52 302.31 401.89 302.55 351.26 302.64 250 302.81 148.74 302.64 98.11 302.55 47.48 302.31" style="fill:#ebebeb"></polygon><polygon points="47.48 94.8 98.11 94.56 148.74 94.47 250 94.3 351.26 94.47 401.89 94.56 452.52 94.8 401.89 95.05 351.26 95.13 250 95.3 148.74 95.13 98.11 95.04 47.48 94.8" style="fill:#ebebeb"></polygon><polygon points="47.48 129.39 98.11 129.14 148.74 129.05 250 128.89 351.26 129.05 401.89 129.14 452.52 129.39 401.89 129.63 351.26 129.72 250 129.88 148.74 129.72 98.11 129.63 47.48 129.39" style="fill:#ebebeb"></polygon><polygon points="47.48 163.97 98.11 163.73 148.74 163.64 250 163.47 351.26 163.64 401.89 163.72 452.52 163.97 401.89 164.22 351.26 164.3 250 164.47 148.74 164.3 98.11 164.21 47.48 163.97" style="fill:#ebebeb"></polygon><polygon points="47.48 336.89 98.11 336.65 148.74 336.56 250 336.39 351.26 336.56 401.89 336.65 452.52 336.89 401.89 337.14 351.26 337.22 250 337.39 148.74 337.22 98.11 337.13 47.48 336.89" style="fill:#ebebeb"></polygon><polygon points="47.48 371.48 98.11 371.23 148.74 371.14 250 370.98 351.26 371.14 401.89 371.23 452.52 371.48 401.89 371.72 351.26 371.81 250 371.97 148.74 371.81 98.11 371.72 47.48 371.48" style="fill:#ebebeb"></polygon><polygon points="284.58 66.62 284.83 112.64 284.92 158.66 285.08 250.7 284.92 342.74 284.83 388.75 284.58 413.82 284.34 388.75 284.25 342.74 284.08 250.7 284.25 158.66 284.34 112.64 284.58 66.62" style="fill:#ebebeb"></polygon><polygon points="250 66.62 250.24 112.64 250.33 158.66 250.5 250.7 250.33 342.74 250.25 388.75 250 413.82 249.75 388.75 249.67 342.74 249.5 250.7 249.67 158.66 249.76 112.64 250 66.62" style="fill:#ebebeb"></polygon><polygon points="215.42 66.62 215.66 112.64 215.75 158.66 215.91 250.7 215.75 342.74 215.66 388.75 215.42 413.82 215.17 388.75 215.08 342.74 214.92 250.7 215.08 158.66 215.17 112.64 215.42 66.62" style="fill:#ebebeb"></polygon><polygon points="180.83 66.62 181.07 112.64 181.16 158.66 181.33 250.7 181.16 342.74 181.08 388.75 180.83 413.82 180.59 388.75 180.5 342.74 180.33 250.7 180.5 158.66 180.59 112.64 180.83 66.62" style="fill:#ebebeb"></polygon><polygon points="388.34 66.62 388.58 112.64 388.67 158.66 388.84 250.7 388.67 342.74 388.58 388.75 388.34 413.82 388.09 388.75 388 342.74 387.84 250.7 388.01 158.66 388.09 112.64 388.34 66.62" style="fill:#ebebeb"></polygon><polygon points="353.75 66.62 354 112.64 354.08 158.66 354.25 250.7 354.08 342.74 354 388.75 353.75 413.82 353.51 388.75 353.42 342.74 353.25 250.7 353.42 158.66 353.51 112.64 353.75 66.62" style="fill:#ebebeb"></polygon><polygon points="319.17 66.62 319.41 112.64 319.5 158.66 319.67 250.7 319.5 342.74 319.41 388.75 319.17 413.82 318.92 388.75 318.84 342.74 318.67 250.7 318.84 158.66 318.93 112.64 319.17 66.62" style="fill:#ebebeb"></polygon><polygon points="422.92 66.62 423.16 112.64 423.25 158.66 423.42 250.7 423.25 342.74 423.17 388.75 422.92 413.82 422.68 388.75 422.59 342.74 422.42 250.7 422.59 158.66 422.68 112.64 422.92 66.62" style="fill:#ebebeb"></polygon><polygon points="388.34 66.62 388.58 112.64 388.67 158.66 388.84 250.7 388.67 342.74 388.58 388.75 388.34 413.82 388.09 388.75 388 342.74 387.84 250.7 388.01 158.66 388.09 112.64 388.34 66.62" style="fill:#ebebeb"></polygon><polygon points="146.25 66.62 146.49 112.64 146.58 158.66 146.75 250.7 146.58 342.74 146.49 388.75 146.25 413.82 146 388.75 145.91 342.74 145.75 250.7 145.92 158.66 146 112.64 146.25 66.62" style="fill:#ebebeb"></polygon><polygon points="111.66 66.62 111.91 112.64 111.99 158.66 112.16 250.7 112 342.74 111.91 388.75 111.66 413.82 111.42 388.75 111.33 342.74 111.16 250.7 111.33 158.66 111.42 112.64 111.66 66.62" style="fill:#ebebeb"></polygon><polygon points="77.08 66.62 77.32 112.64 77.41 158.66 77.58 250.7 77.41 342.74 77.32 388.75 77.08 413.82 76.83 388.75 76.75 342.74 76.58 250.7 76.75 158.66 76.83 112.64 77.08 66.62" style="fill:#ebebeb"></polygon><rect x="49.75" y="206.69" width="202.48" height="7.85" style="fill:#ebebeb"></rect><polygon points="79.51 214.39 79.51 257.27 68.54 257.27 65.49 224.58 64.54 214.39 79.51 214.39" style="fill:#ebebeb"></polygon><polygon points="64.54 214.39 79.51 214.39 79.51 224.58 65.49 224.58 64.54 214.39" style="fill:#dbdbdb"></polygon><polygon points="237.45 214.39 236.5 224.58 233.45 257.27 222.48 257.27 222.48 214.39 237.45 214.39" style="fill:#ebebeb"></polygon><polygon points="237.45 214.39 236.5 224.58 222.48 224.58 222.48 214.39 237.45 214.39" style="fill:#dbdbdb"></polygon><rect x="161.79" y="154.96" width="1" height="50.73" transform="translate(-31.9 34.92) rotate(-11.19)" style="fill:#ebebeb"></rect><rect x="138.86" y="180.32" width="52.9" height="1" transform="translate(-47.9 301.51) rotate(-77.08)" style="fill:#ebebeb"></rect><rect x="142.81" y="180.85" width="52.83" height="1" transform="translate(-53.75 290.01) rotate(-72.96)" style="fill:#ebebeb"></rect><rect x="165.45" y="155.98" width="1" height="50.39" transform="translate(-46.87 58.41) rotate(-17.53)" style="fill:#ebebeb"></rect><rect x="166.56" y="154.7" width="1" height="51.04" transform="translate(-4.07 3.86) rotate(-1.31)" style="fill:#ebebeb"></rect><polygon points="175.19 207.01 157.37 207.01 160.9 184.68 171.66 184.68 175.19 207.01" style="fill:#c7c7c7"></polygon><rect x="75.65" y="159.63" width="32.07" height="47.39" style="fill:#dbdbdb"></rect><rect x="85.14" y="150.05" width="13.08" height="9.58" style="fill:#ebebeb"></rect><rect x="80.11" y="171.65" width="23.03" height="22.03" style="fill:#ebebeb"></rect><rect x="110.07" y="153.45" width="27.49" height="53.56" style="fill:#dbdbdb"></rect><rect x="118.21" y="145.24" width="11.21" height="8.21" style="fill:#c7c7c7"></rect><rect x="110.07" y="173.88" width="27.49" height="18.89" style="fill:#c7c7c7"></rect><rect x="253.61" y="95.77" width="219.53" height="158.47" transform="translate(538.38 -188.37) rotate(90)" style="fill:#ebebeb"></rect><rect x="274.33" y="116.49" width="178.09" height="117.04" transform="translate(538.38 -188.37) rotate(90)" style="fill:#fff"></rect><g style="opacity:0.2"><polygon points="421.9 214.63 304.86 97.59 304.86 85.97 330.01 85.97 421.9 177.85 421.9 214.63" style="fill:#ebebeb"></polygon><polygon points="367.66 264.06 330.87 264.06 304.86 238.05 304.86 201.26 367.66 264.06" style="fill:#ebebeb"></polygon><polygon points="421.9 108.92 398.94 85.97 411.03 85.97 421.9 96.83 421.9 108.92" style="fill:#ebebeb"></polygon><polygon points="409.26 264.06 405.21 264.06 304.86 163.71 304.86 159.66 409.26 264.06" style="fill:#ebebeb"></polygon><polygon points="421.9 165.64 342.22 85.97 346.27 85.97 421.9 161.59 421.9 165.64" style="fill:#ebebeb"></polygon></g></g><g id="freepik--Plant--inject-35"><path d="M118.74,321c-12.72,17.22-26,37.21-29.2,58.8a.29.29,0,0,0,.56.11,128.77,128.77,0,0,1,5.62-17.29c8.36-2.3,16.57-4.19,21-12.49,4.47-8.53,3.9-19.65,3-28.94C119.67,320.66,119,320.64,118.74,321Z" style="fill:#FFC727"></path><path d="M95.85,362.43c5.71-12.82,13-25.69,22.36-36.23.07-.07.16,0,.11.1-6.11,7.51-10.74,15.68-15.27,24,4.21-4.27,8.82-8.1,12.81-12.63.08-.09.2,0,.13.13-4,4.75-8.29,9.91-13.45,13.43q-2.07,3.82-4.19,7.67c.35-.19.71-.37,1.06-.54.06,0,.12.06.06.09-.4.2-.79.41-1.19.58-.67,1.21-1.34,2.43-2,3.63C96.1,362.93,95.73,362.7,95.85,362.43Z" style="fill:#263238"></path><path d="M100.1,358a76.77,76.77,0,0,0,9.76-6.52c.08-.07.2.05.12.12a51.51,51.51,0,0,1-9.74,6.63C100.08,358.28,99.94,358,100.1,358Z" style="fill:#263238"></path><path d="M88.07,376.56c0,.26.47.26.46,0,.07-7.11,0-14.26.12-21.4,1.82-3.68,5.73-5.71,8.45-8.66a37.86,37.86,0,0,0,5.07-7.06,50.76,50.76,0,0,0,5.88-19.62c.75-7.6-2.13-32.71-5.34-31.83-1.66.45-7,12.88-8.47,17a118.39,118.39,0,0,0-5.06,20.84C86.58,342.53,86.8,359.72,88.07,376.56Z" style="fill:#FFC727"></path><path d="M88,345.88l0,0c.39-9,2.42-18.08,4.31-26.81,2-9.4,4.44-18.25,9.28-26.64a.14.14,0,0,1,.24.14A98.5,98.5,0,0,0,94.43,313c.32-.51.71-1,1-1.47.13-.18.45,0,.31.19a12.81,12.81,0,0,1-1.51,2.13s0,0-.06,0c-1.67,6.72-2.86,13.59-3.88,20.45l.22-.26a.07.07,0,0,1,.11.08l-.41.68c-.51,3.48-1,6.95-1.47,10.39,6.19-5.29,11.49-11.54,14.47-19.23,0,0,.07,0,.06,0-2.93,8-7.54,15.07-14.63,19.91l-.39,2.78c0,.19-.34.14-.33-.05,0-.81,0-1.64.07-2.46A.19.19,0,0,1,88,345.88Z" style="fill:#263238"></path><path d="M90.94,332.84c4.73-7.06,9.15-13.93,12.62-21.74,0-.09.19,0,.15.07-2.92,7.76-7,15.62-12.54,21.86C91.06,333.16,90.84,333,90.94,332.84Z" style="fill:#263238"></path><path d="M97.23,309.36c2-3.48,4-6.85,5.88-10.39,0-.1.18,0,.14.08a54,54,0,0,1-5.72,10.48A.17.17,0,0,1,97.23,309.36Z" style="fill:#263238"></path><path d="M96.46,310.87a0,0,0,1,1,0,.06A0,0,0,1,1,96.46,310.87Z" style="fill:#263238"></path><path d="M83.25,356a72.27,72.27,0,0,1-1.66,14c.08.51.15,1,.22,1.54a66.91,66.91,0,0,0,2.51-15.62.48.48,0,0,0,0-.48v0a103.68,103.68,0,0,0-1.57-21.16c-2.2-13.07-7-25.61-16.13-35.4a.64.64,0,0,0-1,.2c-3.68,9.36-2.4,20.51.73,29.84a54.71,54.71,0,0,0,7.23,14.18C76.73,347.47,80.71,351.19,83.25,356Z" style="fill:#FFC727"></path><path d="M67.72,303.23c8.64,14,14.65,30.64,15.38,47.2,0,.3-.48.38-.52.07-.2-1.48-.43-3-.67-4.43h0c-3.58-3.42-7.25-7-9.8-11.31,0-.08.06-.17.12-.1A118.27,118.27,0,0,0,81.74,345c-.62-3.66-1.35-7.26-2.22-10.81l-.68-.8c-.15-.18.1-.44.25-.26l.21.23A123.59,123.59,0,0,0,74.78,319c-2.2-2.62-4.65-4.89-6.26-8.05a.07.07,0,0,1,.12-.07c1.29,1.81,2.53,3.63,4,5.3.59.67,1.22,1.3,1.83,1.95a111,111,0,0,0-7.07-14.74A.19.19,0,0,1,67.72,303.23Z" style="fill:#263238"></path><path d="M69.47,320.53c2.79,3.75,6,7.34,8.57,11.22.07.11-.09.23-.18.14-3.34-3.13-6.16-7.4-8.58-11.25C69.2,320.51,69.39,320.42,69.47,320.53Z" style="fill:#263238"></path><path d="M78.43,332.62l.12.12c.08.08,0,.21-.13.13l-.12-.12A.09.09,0,0,1,78.43,332.62Z" style="fill:#263238"></path><path d="M54.19,330.18c.69,7.22,4.49,15.83,9.11,21.39a22.71,22.71,0,0,0,7.39,5.77c3.21,1.58,6.56,3.41,9.87,4.71a64.63,64.63,0,0,1,3.49,12.4c.11-.36.21-.73.32-1.1-2.12-18.26-13.94-33.87-29.06-43.89A.73.73,0,0,0,54.19,330.18Z" style="fill:#FFC727"></path><path d="M59.41,335.58c-.11-.1,0-.29.15-.2a61.81,61.81,0,0,1,19.26,23.74c.11.25-.23.46-.37.21-.71-1.23-1.42-2.42-2.15-3.6h0c-3.45-.65-6.72-3.08-9.28-5.38-.07-.06,0-.16.1-.1a21.33,21.33,0,0,0,4.37,3.06,45.86,45.86,0,0,0,4.38,1.74q-1.92-3-4-5.86a40.56,40.56,0,0,1-10.37-5.83c-.1-.07,0-.24.1-.17a103.9,103.9,0,0,0,9.64,5.15,87.76,87.76,0,0,0-6.81-7.93c-1.17-.62-2.36-1.24-3.5-1.9-.09-.06,0-.22.08-.18a12.12,12.12,0,0,1,2.68,1.32C62.32,338.27,60.91,336.91,59.41,335.58Z" style="fill:#263238"></path><path d="M59.73,341.88a5.06,5.06,0,0,1,.58.42c.06.05,0,.12-.07.09a4.09,4.09,0,0,1-.61-.34A.1.1,0,0,1,59.73,341.88Z" style="fill:#263238"></path><polygon points="107.96 414 66.54 414 69.89 376.28 70.62 367.96 103.88 367.96 104.62 376.28 107.96 414" style="fill:#455a64"></polygon><polygon points="104.62 376.28 69.89 376.28 70.62 367.96 103.88 367.96 104.62 376.28" style="fill:#263238"></polygon><rect x="68.64" y="362.15" width="37.23" height="8.23" style="fill:#455a64"></rect></g><g id="freepik--Character--inject-35"><path d="M217.84,293.62s0,.09.07.27.07.26.11.45L248.49,414h79.89c.16-19.09-20.39-82.14-20.39-82.14,3.45-15.24-2.41-38.24-2.41-38.24Z" style="fill:#455a64"></path><path d="M173.41,414h81.45c.24-6,1.46-37.17,1.46-37.17s1.07-.65,1.51-.9l20.6-10.12c12.57-26.5,13-69.75,13.19-71.92,0-.13,0-.22,0-.27v0l-113,0s-19.54,49.9-3.29,83.73C175.3,377.35,173.87,408,173.41,414Z" style="fill:#455a64"></path><path d="M246.68,380.83c3.5-2.44,7.28-4.47,11-6.57s7.64-4.19,11.59-6a189.83,189.83,0,0,1,24-8.7c.2-.06.34.27.14.36-7.81,3.35-15.39,7.2-23.16,10.65-3.91,1.73-7.85,3.39-11.76,5.12s-7.73,3.67-11.67,5.32C246.66,381,246.59,380.89,246.68,380.83Z" style="fill:#263238"></path><path d="M268.06,342.59c.09-3.83.37-7.66.55-11.49.45-9,.8-18.12,1.64-27.13a.28.28,0,0,1,.56,0c.12,7-.15,14-.3,21-.07,3.5-.17,7-.26,10.5a95.67,95.67,0,0,0-.07,10c.19,2.52.74,7.41,4,7.72,3.09.28,4.79-3.06,5.57-5.51,2-6.22,2.66-12.94,3.29-19.41.38-3.84.76-7.66,1-11.5a105.91,105.91,0,0,0,.38-11.81c0-.25.37-.24.39,0,.21,3.95.75,7.87.89,11.84s.14,7.89-.12,11.82c-.24,3.77-.56,7.57-1.13,11.31A40.3,40.3,0,0,1,282,350c-1.13,2.65-3.1,5.09-6.07,5.67a6,6,0,0,1-1.1.11c0,.82-.15,1.63-.2,2.43-.09,1.27-.25,2.53-.42,3.79a30.51,30.51,0,0,1-.77,3.66,14.16,14.16,0,0,1-1.29,3.5.2.2,0,0,1-.36-.11,17.55,17.55,0,0,1,.3-3.61c.17-1.23.34-2.47.6-3.69s.47-2.4.71-3.59c.17-.8.28-1.63.43-2.44a5.92,5.92,0,0,1-4.39-3.46C268.09,349.27,268,345.79,268.06,342.59Z" style="fill:#263238"></path><path d="M191.31,340.84c5.49.38,10.9,1.09,16.4.43A28.52,28.52,0,0,0,222,335.68c9-7,13-18.49,15.45-29.25a.19.19,0,0,1,.38.06c-1,9.33-3,19-9.05,26.49a29.16,29.16,0,0,1-9.62,7.93,28.33,28.33,0,0,1-12.7,2.61,61.6,61.6,0,0,1-15.22-2A.32.32,0,0,1,191.31,340.84Z" style="fill:#263238"></path><path d="M254.29,406.67c.05-2.45.15-4.91.28-7.37.26-5,.54-9.9,1-14.85.24-2.8.4-5.61.75-8.39a.13.13,0,0,1,.25,0c.06,2.46-.05,4.92-.08,7.38s-.05,4.91-.13,7.37c-.15,4.95-.42,9.92-.78,14.86-.11,1.38-.24,2.75-.36,4.13a20.11,20.11,0,0,1-.59,4c0,.07-.14.08-.16,0a18.86,18.86,0,0,1-.2-3.52C254.24,409.09,254.27,407.88,254.29,406.67Z" style="fill:#263238"></path><path d="M262,99.91c2.35.43,12.74-.21,19.12,9.54,6,9.23,6.87,36.36,7.95,42.31s8.75,7.26,10.2,14.19c1.25,6-3.15,7.89-3.82,12.18-.52,3.32,2.58,8.52-.74,13.3-3,4.35-7.84,3.14-10.87,4.39s-5.22,8-10.77,9.52-10.11-3.69-13-3.81-6.8,8.57-16.21,7.28-11.7-9.42-15.51-11.2-13.75.4-18-4.71-4.63-11.66-6.51-14.16-6.12-2.35-8.32-8,3.13-8.92,4.12-13.69c.69-3.32-2.13-6.56.24-11.56,3.26-6.89,11.78-4.92,15.45-12,2.88-5.53,9.53-29.88,24.74-35.14C250.59,94.73,262,99.91,262,99.91Z" style="fill:#263238"></path><path d="M288.85,150.33a8.38,8.38,0,0,0,2.35,3.3l2.94,2.83a25.17,25.17,0,0,1,5.12,6,8.16,8.16,0,0,1,.53,7.22,12.34,12.34,0,0,1-2.15,3.17,14.88,14.88,0,0,0-2.53,3.46,7,7,0,0,0,.15,4.47c.37,1.33.79,2.6,1.09,3.88.63,2.54.68,5.21-.64,7.39a5.52,5.52,0,0,1-2.73,2.4,10.2,10.2,0,0,1-3.81.62c-1.33,0-2.68-.1-4-.15a6.79,6.79,0,0,0-4,.69,7.26,7.26,0,0,1,4-.28c1.33.17,2.67.4,4,.49a10.7,10.7,0,0,0,4.18-.45,6.67,6.67,0,0,0,3.39-2.69c1.72-2.45,1.61-5.68,1-8.33-.29-1.36-.7-2.67-1-3.95a5.59,5.59,0,0,1-.14-3.5c.92-2.11,3.46-3.91,4.54-6.66a9.11,9.11,0,0,0-.8-8.37,26.11,26.11,0,0,0-5.65-6l-3.16-2.56A9.22,9.22,0,0,1,288.85,150.33Z" style="fill:#263238"></path><path d="M225.58,111.52c-2.8,4-4.65,8.55-6.91,12.81-1.13,2.13-2.19,4.3-3.46,6.31a16.93,16.93,0,0,1-2.09,2.76,2.66,2.66,0,0,1-.59.5,3,3,0,0,1-.67.39c-.53.24-1.08.45-1.64.66a67.63,67.63,0,0,0-6.81,2.73,12.36,12.36,0,0,0-5.6,5,7.61,7.61,0,0,0-1,3.75,9.91,9.91,0,0,0,.91,3.66,15.72,15.72,0,0,1,1.9,6.9c.43-2.44-.42-4.91-1.19-7.17a9.29,9.29,0,0,1-.64-3.39,6.55,6.55,0,0,1,1-3.16,12.1,12.1,0,0,1,5.2-4.37c2.12-1,4.42-1.7,6.73-2.55.58-.22,1.15-.45,1.73-.73a5.37,5.37,0,0,0,1.66-1.22,16.87,16.87,0,0,0,2.24-3.06,57.55,57.55,0,0,0,3.34-6.54l2.87-6.69A63.51,63.51,0,0,1,225.58,111.52Z" style="fill:#263238"></path><path d="M201.64,177c1,1.45,1,3.26,1.29,4.95s.55,3.44.91,5.16a26.15,26.15,0,0,0,1.55,5.09,11.46,11.46,0,0,0,3.23,4.47c3.19,2.29,7.12,2.25,10.54,1.82,1.74-.23,3.45-.55,5.15-.73a10.84,10.84,0,0,1,5.09.29,10,10,0,0,0-5.13-1.05c-1.77,0-3.5.22-5.22.3-3.36.18-6.94,0-9.49-1.86a10.32,10.32,0,0,1-2.84-3.85,31.06,31.06,0,0,1-1.73-4.77c-.49-1.65-.89-3.34-1.32-5-.23-.84-.47-1.69-.75-2.52A5.22,5.22,0,0,0,201.64,177Z" style="fill:#263238"></path><path d="M268,184.18c40,16,101.2,49.51,100.82,64.69-.41,16.92-53.06,8.16-54.51,6-.81-1.17-35.33-29.26-53.09-52C242,178.28,257.93,180.14,268,184.18Z" style="fill:#d3766a"></path><path d="M319.22,205.58l-34.3,25.16s-24-23.43-32.47-36.16c-8.1-12.19-6.26-22.21,18.09-12C300.54,195.16,319.22,205.58,319.22,205.58Z" style="fill:#FFC727"></path><path d="M282.71,204.76a2.22,2.22,0,0,1-1,.54,2.13,2.13,0,0,1-2-.6,2.67,2.67,0,0,0-3-.52,5.25,5.25,0,0,0-1.88,2.09c.4-.23.75-.51,1.12-.76a2.4,2.4,0,0,1,1-.57,2.09,2.09,0,0,1,2,.52,2.73,2.73,0,0,0,2.95.61c1-.46,1.4-1.34,1.92-2.07C283.43,204.23,283.09,204.51,282.71,204.76Zm29.34-3a2,2,0,0,1-1.49.67,2.7,2.7,0,0,0-2.51,1.66,4.68,4.68,0,0,0,.1,2.81c.12-.45.17-.89.25-1.34a2.22,2.22,0,0,1,.37-1.11,2.13,2.13,0,0,1,1.81-1,2.72,2.72,0,0,0,2.27-1.31Zm-53.82-15.57a12.19,12.19,0,0,0-.26,1.34,2.35,2.35,0,0,1-.33,1.13,2.1,2.1,0,0,1-1.76,1,2.71,2.71,0,0,0-2.52,1.65,4.87,4.87,0,0,0,.11,2.82c.11-.44.16-.89.25-1.33a2.22,2.22,0,0,1,.37-1.11,2.13,2.13,0,0,1,1.8-1,2.67,2.67,0,0,0,2.48-1.74A5.24,5.24,0,0,0,258.23,186.21Zm29.26,4.45a2.32,2.32,0,0,1-1.12-.36,2.29,2.29,0,0,1-.89-1.24l-1.12-.51A2.69,2.69,0,0,0,286,191a4.75,4.75,0,0,0,2.81-.11C288.37,190.79,287.93,190.74,287.49,190.66Z" style="fill:#fff"></path><path d="M307.59,203.44a68,68,0,0,0-7.07,4.48c-2.3,1.56-4.57,3.16-6.84,4.77s-4.57,3.24-6.81,4.92-4.49,3.55-6.75,5.32c-.12.1,0,.33.18.23,2.35-1.5,4.74-2.93,7.06-4.49s4.56-3.17,6.83-4.77,4.56-3.25,6.81-4.92a69.79,69.79,0,0,0,6.73-5.34A.12.12,0,0,0,307.59,203.44Z" style="fill:#263238"></path><path d="M303.62,217l-18.7,13.7s-24-23.42-32.47-36.15a26.82,26.82,0,0,1-4.07-8.73Z" style="fill:#263238"></path><path d="M309.16,319.57c1.37-25.72-17.27-57-17.27-57s11.69-20.41,4.91-35c-3.42-7.42-28.53-36.94-41.18-46.11-11.86-8.61-29.07.6-35.49,7.35-24.69,26-42.37,71.74-47.32,131Z" style="fill:#FFC727"></path><path d="M253.85,218a2.15,2.15,0,0,1-1.11-.36,2.13,2.13,0,0,1-1-1.82,2.71,2.71,0,0,0-1.74-2.48,5.18,5.18,0,0,0-2.81.16c.44.11.89.16,1.34.25a2.35,2.35,0,0,1,1.13.33,2.09,2.09,0,0,1,1,1.76,2.73,2.73,0,0,0,1.66,2.53,4.84,4.84,0,0,0,2.81-.11C254.74,218.11,254.3,218.06,253.85,218Zm44.46,21.17a5.32,5.32,0,0,0-2.82.15c.45.12.9.17,1.34.26a2.28,2.28,0,0,1,1.13.33,2.13,2.13,0,0,1,.83.91c0-.44.08-.9.1-1.36A3.14,3.14,0,0,0,298.31,239.14Zm-35.62,35.78a2.19,2.19,0,0,1-1.12-.36,2.15,2.15,0,0,1-1-1.82,2.67,2.67,0,0,0-1.74-2.47,5.14,5.14,0,0,0-2.8.15c.45.11.88.17,1.33.26a2.28,2.28,0,0,1,1.14.32,2.15,2.15,0,0,1,1,1.76,2.74,2.74,0,0,0,1.65,2.53,4.84,4.84,0,0,0,2.81-.11C263.57,275.06,263.13,275,262.69,274.92Zm36.23,1.54-.16,0a2.22,2.22,0,0,1-1.11-.37,2.1,2.1,0,0,1-1-1.81,2.69,2.69,0,0,0-1.75-2.47,5.39,5.39,0,0,0-2.81.14c.45.13.89.17,1.34.26a2.28,2.28,0,0,1,1.13.34,2.06,2.06,0,0,1,1,1.75,2.7,2.7,0,0,0,1.66,2.52,3.06,3.06,0,0,0,1.81.09Zm-69.28-39.9a2.19,2.19,0,0,1-1.11-.37,2.1,2.1,0,0,1-1-1.81,2.7,2.7,0,0,0-1.74-2.48A5.39,5.39,0,0,0,223,232a12.19,12.19,0,0,0,1.34.26,2.43,2.43,0,0,1,1.13.34,2,2,0,0,1,1,1.76,2.71,2.71,0,0,0,1.67,2.51,4.69,4.69,0,0,0,2.81-.1C230.53,236.69,230.09,236.64,229.64,236.56Zm-17.86,57.13a2.29,2.29,0,0,1-1.12-.37,2.13,2.13,0,0,1-1-1.81A2.66,2.66,0,0,0,208,289a5.24,5.24,0,0,0-2.8.14c.44.12.88.17,1.33.26a2.38,2.38,0,0,1,1.14.32,2.16,2.16,0,0,1,1,1.77,2.71,2.71,0,0,0,1.65,2.52,4.84,4.84,0,0,0,2.81-.11C212.66,293.82,212.22,293.77,211.78,293.69Zm78.32,25.57a2.73,2.73,0,0,0-1.75-2.49,5.19,5.19,0,0,0-2.81.16c.45.11.89.17,1.34.25a2.28,2.28,0,0,1,1.13.33,2.1,2.1,0,0,1,1,1.77c0,.11,0,.21,0,.33h1.07A1.38,1.38,0,0,1,290.1,319.26Zm-9.31-63.59a2.32,2.32,0,0,1-1,.57,2.13,2.13,0,0,1-2-.51,2.7,2.7,0,0,0-2.95-.62c-1,.45-1.4,1.34-1.92,2.07.41-.24.76-.51,1.13-.77a2.25,2.25,0,0,1,1-.53,2.13,2.13,0,0,1,2,.6,2.68,2.68,0,0,0,3,.52,5.27,5.27,0,0,0,1.89-2.09A13.1,13.1,0,0,0,280.79,255.67Zm-87.72-19a2.29,2.29,0,0,1-1,.57,2.16,2.16,0,0,1-1.21-.05c-.14.31-.25.63-.38.94a2.59,2.59,0,0,0,1.88-.13,5.31,5.31,0,0,0,1.88-2.09C193.81,236.16,193.45,236.44,193.07,236.7Zm0,38.37a2.26,2.26,0,0,1-1,.57,2.09,2.09,0,0,1-2-.52,2.72,2.72,0,0,0-3-.61c-1,.44-1.4,1.34-1.91,2.06.4-.23.75-.51,1.12-.76a2.19,2.19,0,0,1,1.05-.53,2.12,2.12,0,0,1,2,.6,2.71,2.71,0,0,0,3,.52,5.25,5.25,0,0,0,1.88-2.09C193.81,274.54,193.45,274.82,193.07,275.07Zm37.27,38.76a2.22,2.22,0,0,1-1,.57,2.11,2.11,0,0,1-2-.52,2.71,2.71,0,0,0-3-.61c-1,.45-1.41,1.34-1.92,2.06.4-.23.75-.51,1.13-.76a2,2,0,0,1,1-.52,2.11,2.11,0,0,1,2,.59,2.69,2.69,0,0,0,3,.52,5.32,5.32,0,0,0,1.88-2.09C231.07,313.3,230.72,313.58,230.34,313.83Zm2.81-47a2.51,2.51,0,0,1-1,.57,2.1,2.1,0,0,1-2-.52,2.72,2.72,0,0,0-3-.61c-1,.45-1.4,1.34-1.91,2.06.39-.23.75-.51,1.12-.76a2.3,2.3,0,0,1,1.05-.54,2.14,2.14,0,0,1,2,.61,2.73,2.73,0,0,0,3,.52,5.25,5.25,0,0,0,1.88-2.09C233.87,266.26,233.52,266.54,233.15,266.79Zm31.58,39.08a2.32,2.32,0,0,1-1,.57,2.08,2.08,0,0,1-2-.52,2.69,2.69,0,0,0-3-.61c-1,.44-1.4,1.34-1.92,2.06.4-.24.75-.51,1.13-.76a2.07,2.07,0,0,1,1-.53,2.11,2.11,0,0,1,2,.6,2.71,2.71,0,0,0,3,.52,5.28,5.28,0,0,0,1.88-2.1C265.46,305.34,265.11,305.61,264.73,305.87Zm-6.5-119.66a12.19,12.19,0,0,0-.26,1.34,2.35,2.35,0,0,1-.33,1.13,2.1,2.1,0,0,1-1.76,1,2.71,2.71,0,0,0-2.52,1.65,4.87,4.87,0,0,0,.11,2.82c.11-.44.16-.89.25-1.33a2.22,2.22,0,0,1,.37-1.11,2.13,2.13,0,0,1,1.8-1,2.67,2.67,0,0,0,2.48-1.74A5.24,5.24,0,0,0,258.23,186.21Zm26.16,99.46c-.11.45-.17.9-.25,1.33a2.32,2.32,0,0,1-.33,1.14,2.1,2.1,0,0,1-1.77,1,2.75,2.75,0,0,0-2.52,1.65,4.83,4.83,0,0,0,.11,2.81c.12-.44.17-.88.26-1.32a2.19,2.19,0,0,1,.36-1.12,2.14,2.14,0,0,1,1.82-1,2.67,2.67,0,0,0,2.46-1.74A5.19,5.19,0,0,0,284.39,285.67ZM280,226.93a12.19,12.19,0,0,0-.26,1.34,2.42,2.42,0,0,1-.33,1.13,2.09,2.09,0,0,1-1.76,1,2.69,2.69,0,0,0-2.52,1.66,4.68,4.68,0,0,0,.11,2.81c.11-.45.16-.89.25-1.34a2.28,2.28,0,0,1,.36-1.11,2.13,2.13,0,0,1,1.81-1,2.69,2.69,0,0,0,2.48-1.74A5.28,5.28,0,0,0,280,226.93Zm-27.69,14.73c-.11.45-.16.9-.26,1.34a2.28,2.28,0,0,1-.32,1.13,2.08,2.08,0,0,1-1.76,1,2.75,2.75,0,0,0-2.53,1.66,4.84,4.84,0,0,0,.11,2.81c.12-.44.18-.89.26-1.34a2.25,2.25,0,0,1,.36-1.11,2.14,2.14,0,0,1,1.82-1,2.7,2.7,0,0,0,2.47-1.74A5.32,5.32,0,0,0,252.27,241.66Zm-60.2,64.61c-.11.44-.16.89-.25,1.33a2.35,2.35,0,0,1-.33,1.14,2.11,2.11,0,0,1-1.76,1,2.71,2.71,0,0,0-2.52,1.65,4.67,4.67,0,0,0,.11,2.81c.11-.44.17-.89.25-1.34a2.25,2.25,0,0,1,.36-1.11,2.14,2.14,0,0,1,1.82-1,2.69,2.69,0,0,0,2.48-1.75A5.15,5.15,0,0,0,192.07,306.27Zm19.43-93.15c-.11.44-.17.89-.25,1.33a2.39,2.39,0,0,1-.33,1.14,2.12,2.12,0,0,1-1.77,1,2.72,2.72,0,0,0-2.51,1.65,4.71,4.71,0,0,0,.11,2.82c.11-.44.16-.89.25-1.33a2.18,2.18,0,0,1,2.17-2.09,2.7,2.7,0,0,0,2.48-1.74A5.14,5.14,0,0,0,211.5,213.12Zm0,39c-.11.45-.17.9-.25,1.33a2.32,2.32,0,0,1-.33,1.14,2.1,2.1,0,0,1-1.77,1,2.71,2.71,0,0,0-2.51,1.65,4.67,4.67,0,0,0,.11,2.81c.11-.43.16-.88.25-1.33a2.18,2.18,0,0,1,.36-1.11,2.13,2.13,0,0,1,1.81-1,2.69,2.69,0,0,0,2.48-1.75A5.15,5.15,0,0,0,211.5,252.09Zm31.34,33.58a13.54,13.54,0,0,0-.26,1.33,2.43,2.43,0,0,1-.33,1.14,2.09,2.09,0,0,1-1.77,1,2.72,2.72,0,0,0-2.51,1.65,4.67,4.67,0,0,0,.11,2.81c.11-.44.16-.88.26-1.32a2.09,2.09,0,0,1,.35-1.12,2.13,2.13,0,0,1,1.81-1,2.69,2.69,0,0,0,2.48-1.74A5.28,5.28,0,0,0,242.84,285.67Zm35.91-81.56a2.56,2.56,0,0,0-2,.07,5.25,5.25,0,0,0-1.88,2.09c.4-.23.75-.51,1.12-.76a2.4,2.4,0,0,1,1-.57,2.09,2.09,0,0,1,2,.52,2.87,2.87,0,0,0,1.67.81C280,205.55,279.39,204.82,278.75,204.11Zm-43.91-3.32a2.25,2.25,0,0,1-1,.53,2.16,2.16,0,0,1-2-.61,2.69,2.69,0,0,0-3-.51,5.22,5.22,0,0,0-1.88,2.08c.4-.23.75-.51,1.12-.76a2.51,2.51,0,0,1,1-.57,2.12,2.12,0,0,1,2,.52,2.69,2.69,0,0,0,3,.61c1-.44,1.4-1.33,1.92-2.06C235.56,200.25,235.22,200.53,234.84,200.79Z" style="fill:#fff"></path><path d="M285.22,261.84a45.08,45.08,0,0,0-4.65,0c-1.54.05-3.08.14-4.62.29a70.38,70.38,0,0,0-9.13,1.51,89.18,89.18,0,0,0-17.24,6,59.91,59.91,0,0,0-9.08,5.11.08.08,0,1,0,.08.13A155.49,155.49,0,0,1,257.45,268,137.89,137.89,0,0,1,275,263.65c1.7-.31,3.4-.61,5.11-.87s3.4-.39,5.09-.65A.15.15,0,0,0,285.22,261.84Z" style="fill:#263238"></path><path d="M283.7,268a55,55,0,0,0-10.17-.87,52.81,52.81,0,0,0-10.12.87c-.12,0-.08.19,0,.2,3.37.11,6.75.07,10.12.09s6.74.1,10.1.06C283.86,268.35,283.9,268,283.7,268Z" style="fill:#263238"></path><path d="M234.27,189.88c-2.28,11.29-40.42,76-51,88.6,0,0-53.2,22.18-53.2-5.27,0-14.34,52-57.42,78.63-80.21C219.62,183.7,237,176.12,234.27,189.88Z" style="fill:#d3766a"></path><path d="M172.81,217.73l38.38,18.32s19.23-27.49,25.16-41.57c5.69-13.49,2-23-20-8.42C189.21,204,172.81,217.73,172.81,217.73Z" style="fill:#FFC727"></path><path d="M183.83,215.44c.38-.25.73-.53,1.12-.77a5.18,5.18,0,0,1-1.87,2.1,2.69,2.69,0,0,1-3-.52,2.09,2.09,0,0,0-2-.6,2.19,2.19,0,0,0-1,.53c-.38.26-.73.54-1.12.76.51-.72.88-1.61,1.91-2.06a2.69,2.69,0,0,1,2.95.61,2.1,2.1,0,0,0,2,.52A2.32,2.32,0,0,0,183.83,215.44Z" style="fill:#FFC727"></path><path d="M207.44,196.55a4.67,4.67,0,0,1-2.81.11,2.55,2.55,0,0,1-1.49-1.63c.3-.22.6-.43.91-.63a2.12,2.12,0,0,0,2,1.89C206.55,196.39,207,196.44,207.44,196.55Z" style="fill:#FFC727"></path><path d="M211.5,213.12a5.14,5.14,0,0,1,.15,2.8,2.7,2.7,0,0,1-2.48,1.74,2.18,2.18,0,0,0-2.17,2.09c-.09.44-.14.89-.25,1.33a4.71,4.71,0,0,1-.11-2.82,2.72,2.72,0,0,1,2.51-1.65,2.12,2.12,0,0,0,1.77-1,2.39,2.39,0,0,0,.33-1.14C211.33,214,211.39,213.56,211.5,213.12Z" style="fill:#FFC727"></path><path d="M233,201.33c-.16.3-.32.6-.5.91a2.68,2.68,0,0,1-1.43-.77,2.12,2.12,0,0,0-2-.52,2.51,2.51,0,0,0-1,.57c-.37.25-.72.53-1.12.76a5.22,5.22,0,0,1,1.88-2.08,2.69,2.69,0,0,1,3,.51A2,2,0,0,0,233,201.33Z" style="fill:#FFC727"></path><path d="M206.1,196.29a2.12,2.12,0,0,1-2-1.89c-.31.2-.61.41-.91.63a2.55,2.55,0,0,0,1.49,1.63,4.67,4.67,0,0,0,2.81-.11C207,196.44,206.55,196.39,206.1,196.29Zm-22.27,19.15a2.32,2.32,0,0,1-1,.57,2.1,2.1,0,0,1-2-.52,2.69,2.69,0,0,0-2.95-.61c-1,.45-1.4,1.34-1.91,2.06.39-.22.74-.5,1.12-.76a2.19,2.19,0,0,1,1-.53,2.09,2.09,0,0,1,2,.6,2.69,2.69,0,0,0,3,.52,5.18,5.18,0,0,0,1.87-2.1C184.56,214.91,184.21,215.19,183.83,215.44Zm27.67-2.32c-.11.44-.17.89-.25,1.33a2.39,2.39,0,0,1-.33,1.14,2.12,2.12,0,0,1-1.77,1,2.72,2.72,0,0,0-2.51,1.65,4.71,4.71,0,0,0,.11,2.82c.11-.44.16-.89.25-1.33a2.18,2.18,0,0,1,2.17-2.09,2.7,2.7,0,0,0,2.48-1.74A5.14,5.14,0,0,0,211.5,213.12Zm20.33-12.41a2.69,2.69,0,0,0-3-.51,5.22,5.22,0,0,0-1.88,2.08c.4-.23.75-.51,1.12-.76a2.51,2.51,0,0,1,1-.57,2.12,2.12,0,0,1,2,.52,2.68,2.68,0,0,0,1.43.77c.18-.31.34-.61.5-.91A2,2,0,0,1,231.83,200.71Z" style="fill:#fff"></path><path d="M183.83,213.46a67,67,0,0,1,7.78,3.09c2.55,1.1,5.08,2.25,7.61,3.41s5.09,2.33,7.61,3.56,5.08,2.65,7.62,4a.15.15,0,0,1-.13.26c-2.59-1-5.21-2-7.77-3.1s-5.08-2.26-7.61-3.41-5.09-2.35-7.6-3.57a66.29,66.29,0,0,1-7.61-4A.12.12,0,0,1,183.83,213.46Z" style="fill:#263238"></path><path d="M227.64,215.72q-1.63,1.56-3.28,3.09c-.54.51-1.06,1-1.59,1.54l-.57.56c1.11-1.75,2.2-3.52,3.25-5.31,1.23-2.07,2.36-4.2,3.5-6.32a.06.06,0,1,0-.11-.06c-4.6,7-9.18,14-13.85,20.92-1.29,1.92-2.6,3.83-3.76,5.84l-.74-.17c-.09,0-.15.11-.06.15l.8.39a.19.19,0,0,0,.22,0,96,96,0,0,0,7.28-10.06q1.52-2.28,3-4.57l.79-.69c.62-.55,1.21-1.14,1.8-1.71,1.17-1.12,2.29-2.31,3.42-3.49C227.75,215.74,227.68,215.68,227.64,215.72Z" style="fill:#263238"></path><path d="M206.26,300.08c3.27,5.61-11.16,53.11-19.13,47.82-37.45-24.88-54.32-60-56.27-68.67-2.55-11.37,8.1-21.3,15.7-21.91C157.58,256.43,203,294.52,206.26,300.08Z" style="fill:#d3766a"></path><path d="M166.76,266.28c17.76,8.71,32.54,26.55,32.58,26.57.29.23,0,1.11-.11,1-3.07-2.31-20.7-19.23-32.73-27C166.38,266.76,166.64,266.22,166.76,266.28Z" style="fill:#263238"></path><path d="M205.43,360.82c7.87,1.91,16.74,4.74,25.16,3.72s14.3-12.87,14-16.06-5.53-22.76-14-21.9-1.8,15.62-1.94,17.4-.23,4.06-1.84,4.06S196,337.65,196,337.65Z" style="fill:#d3766a"></path><path d="M205.85,359.6c.48-.05,24,6.57,32.42,5.56s14.29-12.87,14-16.06-5.53-22.77-14-21.91-1.79,15.63-1.93,17.41-.23,4.06-1.84,4-30.82-10.39-30.82-10.39Z" style="fill:#d3766a"></path><path d="M235.52,328.55c-.91,1.44-.88,3.46-.9,5.13a17.42,17.42,0,0,0,.85,5.36,29.32,29.32,0,0,1,1.5,4.53,9.33,9.33,0,0,1-.73,4.58c-.53,1.25-1.81,1-2.91.71a42.25,42.25,0,0,1-4.8-1.61c-1.69-.63-3.37-1.31-5.06-2a45.33,45.33,0,0,1-5.17-2.2.13.13,0,0,1,.08-.24,44.36,44.36,0,0,1,4.48,1.49c1.68.59,3.36,1.17,5,1.72s3.13,1.12,4.72,1.62a5,5,0,0,0,2.29.44c.63-.21.79-1.83.88-2.36a8,8,0,0,0-.76-4.53,24,24,0,0,1-1.34-4.53,12.5,12.5,0,0,1-.1-4.44,17.72,17.72,0,0,1,1.65-3.83C235.33,328.24,235.62,328.39,235.52,328.55Z" style="fill:#263238"></path><path d="M176.83,340.17s25.55,18.94,30.85,22.68c10.63,7.5,53.47,20.12,59.26,20.14s6.67-11.93-22.48-21.31c-15.37-4.93-18.84-13.1-19-17.79s3.38-13.86,11.26-14.45,14.13,10.36,21.48,10.91,1.24-12.21-4.63-19.33-15.76-12.49-22.81-14.35-29-8.78-29-8.78Z" style="fill:#d3766a"></path><path d="M247,334c-3.19-2-6.85-4.62-10.75-4.37s-6.39,3.13-7.93,6.6-2.26,7.38-1,11.07a18.35,18.35,0,0,0,6.28,8.27,44.47,44.47,0,0,0,11.36,6c.18.07.06.33-.13.27-3.78-1.25-15.49-4.71-18.75-14.41-1.33-4-.48-7.71,1.07-11.29,1.42-3.31,3.65-6.58,7.42-7.27,4.61-.85,9,2.52,12.61,5C247.37,334,247.15,334.08,247,334Z" style="fill:#263238"></path><path d="M234.94,181.63c.47,2,9.88,11.52,19.05,9.78,4.56-.86,3.35-11.65,3.35-11.65l4.12-18.31-23-14.63S234.75,180.77,234.94,181.63Z" style="fill:#d3766a"></path><path d="M237.2,158.75a35.77,35.77,0,0,0,20.37,20l3.9-17.29-23-14.63S237.91,152.21,237.2,158.75Z" style="fill:#263238"></path><path d="M285.63,140c-1.12,30.13-21.22,32.56-27.83,32-6-.52-26.35-3-27-33.76S245.31,99,259.09,99.43,286.77,109.26,285.63,140Z" style="fill:#d3766a"></path><path d="M279.42,135.34a20.79,20.79,0,0,1-2-.75,3.43,3.43,0,0,1-1.88-1.14,1.09,1.09,0,0,1,.2-1.32,2.69,2.69,0,0,1,2.74-.23,4,4,0,0,1,2.26,1.77A1.17,1.17,0,0,1,279.42,135.34Z" style="fill:#263238"></path><path d="M258.74,134.69a20.78,20.78,0,0,0,2.1.28,3.45,3.45,0,0,0,2.2-.11,1.1,1.1,0,0,0,.45-1.26,2.71,2.71,0,0,0-2.3-1.5,3.94,3.94,0,0,0-2.83.49A1.16,1.16,0,0,0,258.74,134.69Z" style="fill:#263238"></path><path d="M262.4,141.23c0-.08-.17.07-.18.16-.2,2.09-.78,4.44-2.75,4.89-.06,0-.06.12,0,.12C261.81,146.37,262.55,143.23,262.4,141.23Z" style="fill:#263238"></path><path d="M260.82,138.82c-3.31-.68-4.42,6-1.36,6.62S263.6,139.39,260.82,138.82Z" style="fill:#263238"></path><path d="M259.45,139c-.64.28-1.32.85-2,.81s-1.32-.86-1.74-1.62c0-.08-.11,0-.12.06-.24,1.27,0,2.66,1.37,3.08s2.31-.59,2.84-1.83C259.86,139.23,259.71,138.84,259.45,139Z" style="fill:#263238"></path><path d="M274.27,142.31c0-.08.14.13.12.21-.42,2-.57,4.47,1.18,5.48.05,0,0,.14,0,.12C273.31,147.4,273.53,144.19,274.27,142.31Z" style="fill:#263238"></path><path d="M276.49,140.48c3.36.33,2.45,7-.66,6.72S273.67,140.2,276.49,140.48Z" style="fill:#263238"></path><path d="M277.82,141.11c.49.43.92,1.14,1.55,1.27s1.36-.51,1.93-1.14c.06-.06.1,0,.09.09-.14,1.29-.74,2.56-2,2.64s-1.83-1.14-2-2.45C277.4,141.27,277.63,140.94,277.82,141.11Z" style="fill:#263238"></path><path d="M260.69,157.34c.39.58.74,1.35,1.47,1.57a5.46,5.46,0,0,0,2.31,0,.07.07,0,0,1,.06.13,2.81,2.81,0,0,1-2.83.55,2.23,2.23,0,0,1-1.23-2.15C260.47,157.26,260.63,157.25,260.69,157.34Z" style="fill:#263238"></path><path d="M270.5,151.2s-.23,3.79-.46,5.25c0,.14-3.75-2.48-8.11-3-.17,0,.12-.57.28-.56a12.51,12.51,0,0,1,7,2c.16-.39-.09-5.41.14-5.39a12.69,12.69,0,0,1,3.2,1.26c.3-6.57-.46-13.14-.06-19.68a.2.2,0,0,1,.39,0c1.28,6.82,1.1,14.4,1,21.19C273.88,153.1,271.05,151.54,270.5,151.2Z" style="fill:#263238"></path><path d="M231.06,139.7a12.62,12.62,0,0,0,9.08-8.53c26.62-1.37,35-18.13,35-18.13,5.49,13.78,10.12,16,10.93,18.11,0,0,1.89-12.12-2.39-21.21a25.31,25.31,0,0,0-27.52-14.28c-8.13,1.27-14.81,8.52-14.81,8.52s-8.79,1.17-12.21,8.37C223.38,124.64,231.06,139.7,231.06,139.7Z" style="fill:#263238"></path><path d="M275.5,112a21.58,21.58,0,0,1-5.05,9.36,27.61,27.61,0,0,1-8.65,6.38l-2.5,1c-.85.31-1.73.51-2.58.78a35.13,35.13,0,0,1-5.27,1.06c-1.78.2-3.57.22-5.35.34-1.78-.11-3.56-.19-5.33-.33,1.78-.1,3.55-.13,5.31-.2,1.76-.22,3.52-.34,5.25-.64a38.6,38.6,0,0,0,10-3,28.64,28.64,0,0,0,8.5-6A25.16,25.16,0,0,0,275.5,112Z" style="fill:#263238"></path><path d="M258.11,150.92A8.86,8.86,0,1,1,268.9,142h0a8.86,8.86,0,0,1-10.79,8.92Zm3.6-16.15a8,8,0,0,0-1.9-.18,7.67,7.67,0,1,0,1.9.18Z" style="fill:#FFC727"></path><path d="M278.36,152.89c-3.31-.74-5.56-4.8-5.09-9.4a10.54,10.54,0,0,1,2.5-6,5.52,5.52,0,0,1,9.4,1,10.61,10.61,0,0,1,1.23,6.36c-.5,4.86-3.85,8.51-7.47,8.14A5.62,5.62,0,0,1,278.36,152.89Zm2.7-16.29a3.11,3.11,0,0,0-.44-.07,4.72,4.72,0,0,0-4,1.78,9.33,9.33,0,0,0-2.2,5.3c-.43,4.21,1.62,7.89,4.6,8.19s5.74-2.87,6.17-7.08a9.39,9.39,0,0,0-1.08-5.64A4.87,4.87,0,0,0,281.06,136.6Z" style="fill:#FFC727"></path><path d="M268.5,143l-.67-1c1.45-1,4.7-2.18,6.62.35l-.95.71C271.79,140.81,268.63,142.9,268.5,143Z" style="fill:#FFC727"></path><path d="M229,141.23l-1-.65c.3-.46,3-4.52,5.71-4.68,2.5-.14,18.15,3,18.81,3.1l-.23,1.16c-4.49-.9-16.58-3.19-18.51-3.07C232,137.19,229.71,140.11,229,141.23Z" style="fill:#FFC727"></path><path d="M236,138.93s-5-10.6-9.68-9-2.09,16.18,2.63,18.93a5.2,5.2,0,0,0,7.34-1.57Z" style="fill:#d3766a"></path><path d="M227.19,134.11c-.08,0-.12.08-.05.13,3.29,2,4.58,5.63,5.3,9.25-.83-1.49-2.13-2.45-4.1-1.5-.1,0,0,.21.06.21a3.19,3.19,0,0,1,3.28,1.69,15.39,15.39,0,0,1,1.18,3.09c.11.35.71.28.65-.11,0,0,0-.05,0-.08C234.36,142.3,232,135.39,227.19,134.11Z" style="fill:#263238"></path><path d="M368.35,246.19c5.21,14.07-3.27,33.28-17.14,57.49-3.31,5.78-48.95-25.44-46.07-31.95,3.61-8.13,8.65-21.94,10.69-23.51C333,235.05,365.49,238.47,368.35,246.19Z" style="fill:#d3766a"></path><rect x="263.23" y="362.61" width="6.9" height="13.37" transform="translate(372.27 812.41) rotate(-157.57)" style="fill:#a6a6a6"></rect><rect x="264.94" y="369.05" width="0.92" height="6.69" transform="translate(368.61 817.88) rotate(-157.57)" style="fill:#FFC727"></rect><path d="M293.32,304.74c24.73,10.21,13.18,29.59,6.9,44.81s-15.79,21.52-31.59,15-18.08-17.7-11.8-32.91S268.6,294.54,293.32,304.74Z" style="fill:#FFC727"></path><path d="M288,317.61c17.65,7.28,9.41,21.12,4.92,32S281.66,365,270.39,360.3s-12.9-12.64-8.42-23.49S270.37,310.33,288,317.61Z" style="fill:#263238"></path><rect x="266.95" y="324.6" width="25.02" height="27.44" transform="translate(408.7 757.68) rotate(-157.57)" style="fill:#455a64"></rect><path d="M288.34,314.65l2.22-5.37c-6.15-2.54-12.37-1-13.14.86Z" style="fill:#263238"></path><polygon points="286.85 309.79 285.81 312.31 283.68 309.96 286.85 309.79" style="fill:#ebebeb"></polygon><path d="M289.87,315.28l2.22-5.37c6.14,2.54,9.48,8,8.7,9.88Z" style="fill:#263238"></path><polygon points="294.36 312.89 293.32 315.41 296.48 315.24 294.36 312.89" style="fill:#ebebeb"></polygon><path d="M282.85,337.29a3.67,3.67,0,1,1,4.1,5,2.47,2.47,0,0,1-.11,1.6,2.54,2.54,0,0,1-4.69-1.94,2.5,2.5,0,0,1,1.05-1.21A3.71,3.71,0,0,1,282.85,337.29Zm1.55.64a2,2,0,0,0,1.07,2.61,2,2,0,1,0,1.52-3.68A2,2,0,0,0,284.4,337.93Zm.89,5.33a.86.86,0,1,0-1.59-.66.86.86,0,0,0,1.59.66Z" style="fill:#263238"></path><path d="M282.3,331.61a1.35,1.35,0,0,0-1.5.88,1.12,1.12,0,0,1,.42,1.3l-.05.12a1,1,0,0,1-1.36.55c-.64-.26-.82-.9-.51-1.67l.07-.16a3,3,0,0,1,1.55-1.78,2.26,2.26,0,0,1,1.59-.06.42.42,0,0,1-.21.82Z" style="fill:#263238"></path><path d="M271,335.47a3.77,3.77,0,0,1,0-2.93,3.83,3.83,0,0,1,2.06-2.05,3.75,3.75,0,0,1,2.92,0h0a3.69,3.69,0,0,1,2,2.06.84.84,0,0,1-.47,1.13.88.88,0,0,1-1.14-.47,2,2,0,0,0-1.13-1.13,2,2,0,0,0-1.58,0,2.08,2.08,0,0,0-1.12,1.12,2,2,0,0,0,0,1.6,2,2,0,0,0,1.12,1.11,2,2,0,0,0,1.59,0,.87.87,0,0,1,1.14.46c0,.08.05.17.08.25s0,.05,0,.05a.08.08,0,0,0,0,.08,1,1,0,0,0,0,.11s0,0,0,0a.93.93,0,0,1-.1.25l-1.94,3.5a1,1,0,0,1-.59.42h-.07l-.05,0a1,1,0,0,1-.41-.07l-4.19-1.73a.87.87,0,1,1,.66-1.61l3.5,1.45.75-1.34a4.28,4.28,0,0,1-1-.26A3.75,3.75,0,0,1,271,335.47Z" style="fill:#263238"></path><path d="M321.17,267.2s-19.12,4.29-28.34,9.61c-12.34,7.13-20.06,18.36-23,23.27-6.16,10.23-14,39.24-6,42.95,7.21,3.36,13.7-26.7,13.7-26.7s-11.68,29.56-2.25,32,15-32.87,15-32.87-11.32,30.63-1.2,31.62c7.64.75,14.47-31,14.47-31s-9.54,26.4-1.71,27.5c8.65,1.23,16.79-27.64,16.79-27.64,25.14,2.08,31.7-9,36.69-19.51C356.2,294.46,321.17,267.2,321.17,267.2Z" style="fill:#d3766a"></path><path d="M280.89,305.86c-1.5,3.42-3,6.87-4.23,10.41s-2.25,7.13-3.1,10.77a64,64,0,0,0-2,14.47c.82-8.65,4.88-21.4,6.07-24.95s2.19-7.13,3.37-10.66A.07.07,0,1,0,280.89,305.86Z" style="fill:#263238"></path><path d="M293.76,309.91c-1.73,4.45-3.6,8.81-5.13,13.34s-2.56,8.92-3.77,13.52c-.09.35.13.28.24-.07,1.39-4.55,3-8.64,4.46-13.18s2.71-9.12,4.31-13.57C293.89,309.88,293.78,309.85,293.76,309.91Z" style="fill:#263238"></path><path d="M305.43,311.41c-3,6.67-4.73,13.88-6.27,21-.08.36.2.24.29-.12,2-7,3.44-12.54,6.21-20.77C305.71,311.38,305.49,311.27,305.43,311.41Z" style="fill:#263238"></path><path d="M335.56,241.26c-3.72.16-17.13,3.31-22.87,11.9-.05.08,0,.2.09.13,6.26-6,19.2-11.43,22.8-11.88A.08.08,0,0,0,335.56,241.26Z" style="fill:#263238"></path></g><g id="freepik--Shadows--inject-35"><ellipse cx="137.52" cy="435.98" rx="49.57" ry="7.02" style="fill:#ebebeb"></ellipse><ellipse cx="386.22" cy="435.98" rx="49.57" ry="7.02" style="fill:#ebebeb"></ellipse></g><g id="freepik--Table--inject-35"><polygon points="459.98 414 407.49 414.24 354.99 414.33 250 414.5 145.01 414.33 92.52 414.24 40.02 414 92.52 413.75 145.01 413.67 250 413.5 354.99 413.67 407.49 413.76 459.98 414" style="fill:#263238"></polygon></g><g id="freepik--Pills--inject-35"><rect x="365.26" y="393.27" width="26.39" height="39.59" style="fill:#FFC727"></rect><rect x="362.07" y="382.64" width="32.77" height="10.63" style="fill:#455a64"></rect><rect x="369.67" y="404.66" width="17.57" height="17.57" style="fill:#fff"></rect><polygon points="365.26 393.27 365.26 396.35 380.12 401.97 380.12 432.86 387.24 432.86 387.24 393.27 365.26 393.27" style="opacity:0.1"></polygon><path d="M357.08,432h0a3.32,3.32,0,0,1,3.33-3.31H367a3.32,3.32,0,0,1,3.33,3.31h0a3.34,3.34,0,0,1-3.33,3.33h-6.58A3.34,3.34,0,0,1,357.08,432Z" style="fill:#455a64"></path><path d="M357.08,432h0a3.32,3.32,0,0,1,3.33-3.31h3.29v6.65h-3.29A3.34,3.34,0,0,1,357.08,432Z" style="fill:#FFC727"></path><path d="M402.24,432h0a3.32,3.32,0,0,1-3.32,3.32h-6.59A3.32,3.32,0,0,1,389,432h0a3.32,3.32,0,0,1,3.32-3.32h6.59A3.32,3.32,0,0,1,402.24,432Z" style="fill:#455a64"></path><path d="M402.24,432h0a3.32,3.32,0,0,1-3.32,3.32h-3.3v-6.65h3.3A3.32,3.32,0,0,1,402.24,432Z" style="fill:#FFC727"></path><rect x="401.71" y="422.01" width="6.65" height="13.23" rx="3.32" transform="translate(-184.45 411.94) rotate(-45)" style="fill:#455a64"></rect><path d="M409.71,433.31h0a3.32,3.32,0,0,1-4.69,0L402.68,431l4.7-4.7,2.33,2.33A3.33,3.33,0,0,1,409.71,433.31Z" style="fill:#FFC727"></path><path d="M366.37,436.69h0a3.33,3.33,0,0,1,3.33-3.32h6.58a3.32,3.32,0,0,1,3.32,3.32h0a3.32,3.32,0,0,1-3.32,3.32H369.7A3.33,3.33,0,0,1,366.37,436.69Z" style="fill:#455a64"></path><path d="M366.37,436.69h0a3.33,3.33,0,0,1,3.33-3.32H373V440H369.7A3.33,3.33,0,0,1,366.37,436.69Z" style="fill:#FFC727"></path></g><g id="freepik--Insulin--inject-35"><path d="M168.51,400.46v32.42H139.26V400.46c0-3.91,7.57-9.14,7.57-11.47V384.5h14.09V389C160.92,391.32,168.51,396.55,168.51,400.46Z" style="fill:#c7c7c7"></path><rect x="140.42" y="375.82" width="26.93" height="8.68" style="fill:#FFC727"></rect><rect x="139.26" y="404.27" width="25.69" height="16.06" style="fill:#455a64"></rect><path d="M140.42,409.42c0-.31.14-.55.32-.55s.32.24.32.55v5.86c0,.31-.15.55-.32.55s-.32-.24-.32-.55Z" style="fill:#fff"></path><path d="M142.77,415.28c0,.3-.14.55-.31.55s-.31-.25-.31-.55v-5.77h0a.75.75,0,0,1,.12-.46c.15-.17.34-.12.44.12l1.87,4.44v-4.09c0-.29.13-.54.31-.54s.31.25.31.54v5.77c0,.3-.14.55-.31.55s-.18-.08-.24-.2l0-.06-1.85-4.41Z" style="fill:#fff"></path><path d="M146.46,414.1c.1-.22.29-.25.42-.07a1.58,1.58,0,0,0,1.1.76.94.94,0,0,0,.72-.36,1.17,1.17,0,0,0,.25-.72,1,1,0,0,0,0-.32,1,1,0,0,0-.18-.3,1.85,1.85,0,0,0-.79-.46h0a2.29,2.29,0,0,1-.74-.39,1.81,1.81,0,0,1-.54-.77,2.56,2.56,0,0,1,.33-2.27,1.28,1.28,0,0,1,1-.53,1.88,1.88,0,0,1,1.26.8.78.78,0,0,1,.08.7c-.09.24-.27.31-.41.15-.3-.33-.58-.63-.93-.63a.87.87,0,0,0-.65.33,1,1,0,0,0-.22.63.75.75,0,0,0,0,.28.83.83,0,0,0,.16.26,1.57,1.57,0,0,0,.72.43h0a2.45,2.45,0,0,1,.8.42,1.92,1.92,0,0,1,.57.83,2.38,2.38,0,0,1,.14.84,2.46,2.46,0,0,1-.49,1.54,1.38,1.38,0,0,1-1.07.57,2.12,2.12,0,0,1-1.48-1A.82.82,0,0,1,146.46,414.1Z" style="fill:#fff"></path><path d="M152.1,415.83c-.93,0-1.67-1.3-1.67-2.87v-3.54c0-.31.14-.55.32-.55s.32.24.32.55V413c0,1,.47,1.76,1,1.76s1-.79,1-1.76v-3.54c0-.31.14-.55.32-.55s.32.24.32.55V413C153.77,414.53,153,415.83,152.1,415.83Z" style="fill:#fff"></path><path d="M154.86,415.28v-5.86c0-.3.13-.55.31-.55s.33.25.33.55v5.3h1.56c.17,0,.32.25.32.56s-.15.55-.32.55h-1.89C155,415.83,154.86,415.58,154.86,415.28Z" style="fill:#fff"></path><path d="M158.17,409.42c0-.31.14-.55.32-.55s.32.24.32.55v5.86c0,.31-.15.55-.32.55s-.32-.24-.32-.55Z" style="fill:#fff"></path><path d="M160.52,415.28c0,.3-.14.55-.31.55s-.32-.25-.32-.55v-5.77h0A.76.76,0,0,1,160,409c.14-.17.34-.12.44.12l1.86,4.44v-4.09c0-.29.14-.54.31-.54s.32.25.32.54v5.77c0,.3-.14.55-.32.55a.28.28,0,0,1-.23-.2.09.09,0,0,1,0-.06l-1.85-4.41Z" style="fill:#fff"></path><polygon points="146.83 384.5 146.83 387.55 155.47 393.18 161.47 401.57 161.47 432.88 165.6 432.88 165.6 401.62 159.6 393.2 159.6 384.5 146.83 384.5" style="fill:#fff;opacity:0.30000000000000004"></polygon><rect x="110.15" y="433.37" width="7.59" height="1.61" transform="translate(548.12 320.22) rotate(90)" style="fill:#FFC727"></rect><rect x="110.15" y="433.37" width="7.59" height="1.61" transform="translate(548.12 320.22) rotate(90)" style="opacity:0.1"></rect><rect x="100.69" y="433.5" width="4.65" height="1.61" transform="translate(537.31 331.29) rotate(90)" style="fill:#FFC727"></rect><rect x="100.69" y="433.5" width="4.65" height="1.61" transform="translate(537.31 331.29) rotate(90)" style="opacity:0.1"></rect><rect x="107.25" y="429.64" width="2.47" height="9.33" transform="translate(542.78 325.82) rotate(90)" style="fill:#FFC727"></rect><polygon points="111.64 435.53 112.15 433.07 113.14 433.07 113.14 435.53 111.64 435.53" style="opacity:0.2"></polygon><path d="M149,434c1.61-.06,3.23-.08,4.85-.11l4.85,0,4.86,0,2.42,0,2.43.07-2.43.06-2.42,0-4.86,0-4.85,0C152.18,434.12,150.56,434.09,149,434Z" style="fill:#263238"></path><rect x="129.63" y="417.63" width="3.33" height="33.08" transform="translate(565.46 302.88) rotate(90)" style="fill:#FFC727"></rect><rect x="129.63" y="417.63" width="3.33" height="33.08" transform="translate(565.46 302.88) rotate(90)" style="fill:#fff;opacity:0.4"></rect><rect x="144.01" y="432.85" width="0.62" height="0.19" transform="translate(577.27 288.63) rotate(90)" style="fill:#263238"></rect><rect x="143.36" y="432.85" width="0.62" height="0.19" transform="translate(576.62 289.28) rotate(90)" style="fill:#263238"></rect><rect x="142.71" y="432.85" width="0.62" height="0.19" transform="translate(575.97 289.93) rotate(90)" style="fill:#263238"></rect><rect x="142.06" y="432.85" width="0.62" height="0.19" transform="translate(575.32 290.58) rotate(90)" style="fill:#263238"></rect><rect x="141.18" y="433.08" width="1.07" height="0.19" transform="translate(574.89 291.46) rotate(90)" style="fill:#263238"></rect><rect x="140.79" y="432.85" width="0.62" height="0.19" transform="translate(574.02 291.78) rotate(89.99)" style="fill:#263238"></rect><rect x="140.14" y="432.85" width="0.62" height="0.19" transform="translate(573.4 292.5) rotate(90)" style="fill:#263238"></rect><rect x="139.49" y="432.85" width="0.62" height="0.19" transform="translate(572.75 293.15) rotate(90)" style="fill:#263238"></rect><rect x="138.84" y="432.85" width="0.62" height="0.19" transform="translate(572.1 293.8) rotate(90)" style="fill:#263238"></rect><rect x="137.96" y="433.08" width="1.07" height="0.19" transform="translate(571.67 294.68) rotate(90)" style="fill:#263238"></rect><rect x="137.57" y="432.85" width="0.62" height="0.19" transform="translate(570.83 295.07) rotate(90)" style="fill:#263238"></rect><rect x="136.92" y="432.85" width="0.62" height="0.19" transform="translate(570.18 295.72) rotate(90)" style="fill:#263238"></rect><rect x="136.27" y="432.85" width="0.62" height="0.19" transform="translate(569.52 296.37) rotate(90)" style="fill:#263238"></rect><rect x="135.62" y="432.85" width="0.62" height="0.19" transform="translate(568.87 297.02) rotate(90)" style="fill:#263238"></rect><rect x="134.74" y="433.08" width="1.07" height="0.19" transform="translate(568.44 297.86) rotate(89.99)" style="fill:#263238"></rect><rect x="134.35" y="432.85" width="0.62" height="0.19" transform="translate(567.6 298.29) rotate(90)" style="fill:#263238"></rect><rect x="133.7" y="432.85" width="0.62" height="0.19" transform="translate(566.95 298.94) rotate(90)" style="fill:#263238"></rect><rect x="133.05" y="432.85" width="0.62" height="0.19" transform="translate(566.3 299.59) rotate(90)" style="fill:#263238"></rect><rect x="132.39" y="432.85" width="0.62" height="0.19" transform="translate(565.65 300.24) rotate(90)" style="fill:#263238"></rect><rect x="131.52" y="433.08" width="1.07" height="0.19" transform="translate(565.23 301.12) rotate(90)" style="fill:#263238"></rect><rect x="131.13" y="432.85" width="0.62" height="0.19" transform="translate(564.38 301.51) rotate(90)" style="fill:#263238"></rect><rect x="130.47" y="432.85" width="0.62" height="0.19" transform="translate(563.71 302.09) rotate(89.99)" style="fill:#263238"></rect><rect x="129.82" y="432.85" width="0.62" height="0.19" transform="translate(563.1 302.88) rotate(90.01)" style="fill:#263238"></rect><rect x="129.17" y="432.85" width="0.62" height="0.19" transform="translate(562.43 303.47) rotate(90)" style="fill:#263238"></rect><rect x="128.3" y="433.08" width="1.07" height="0.19" transform="translate(562.01 304.34) rotate(90)" style="fill:#263238"></rect><rect x="127.9" y="432.85" width="0.62" height="0.19" transform="translate(561.16 304.74) rotate(90)" style="fill:#263238"></rect><rect x="127.25" y="432.85" width="0.62" height="0.19" transform="translate(560.51 305.39) rotate(90)" style="fill:#263238"></rect><rect x="126.6" y="432.85" width="0.62" height="0.19" transform="translate(559.86 306.04) rotate(90)" style="fill:#263238"></rect><rect x="125.95" y="432.85" width="0.62" height="0.19" transform="translate(559.21 306.69) rotate(90)" style="fill:#263238"></rect><rect x="125.07" y="433.08" width="1.07" height="0.19" transform="translate(558.79 307.57) rotate(90)" style="fill:#263238"></rect><rect x="124.68" y="432.85" width="0.62" height="0.19" transform="translate(557.92 307.89) rotate(89.99)" style="fill:#263238"></rect><rect x="124.03" y="432.85" width="0.62" height="0.19" transform="translate(557.29 308.61) rotate(90)" style="fill:#263238"></rect><rect x="123.38" y="432.85" width="0.62" height="0.19" transform="translate(556.64 309.26) rotate(90)" style="fill:#263238"></rect><rect x="122.73" y="432.85" width="0.62" height="0.19" transform="translate(555.99 309.91) rotate(90)" style="fill:#263238"></rect><rect x="121.85" y="433.08" width="1.07" height="0.19" transform="translate(555.56 310.79) rotate(90)" style="fill:#263238"></rect><rect x="121.46" y="432.85" width="0.62" height="0.19" transform="translate(554.72 311.18) rotate(90)" style="fill:#263238"></rect><rect x="120.81" y="432.85" width="0.62" height="0.19" transform="translate(554.07 311.83) rotate(90)" style="fill:#263238"></rect><rect x="120.16" y="432.85" width="0.62" height="0.19" transform="translate(553.42 312.48) rotate(90)" style="fill:#263238"></rect><rect x="119.51" y="432.85" width="0.62" height="0.19" transform="translate(552.77 313.13) rotate(90)" style="fill:#263238"></rect><rect x="118.63" y="433.08" width="1.07" height="0.19" transform="translate(552.33 313.97) rotate(89.99)" style="fill:#263238"></rect><rect x="118.24" y="432.85" width="0.62" height="0.19" transform="translate(551.5 314.4) rotate(90)" style="fill:#263238"></rect><rect x="117.59" y="432.85" width="0.62" height="0.19" transform="translate(550.85 315.05) rotate(90)" style="fill:#263238"></rect><rect x="116.94" y="432.85" width="0.62" height="0.19" transform="translate(550.2 315.7) rotate(90)" style="fill:#263238"></rect><rect x="116.29" y="432.85" width="0.62" height="0.19" transform="translate(549.55 316.35) rotate(90)" style="fill:#263238"></rect><rect x="115.41" y="433.08" width="1.07" height="0.19" transform="translate(549.12 317.23) rotate(90)" style="fill:#263238"></rect><rect x="144.92" y="432.93" width="3.33" height="2.49" transform="translate(580.76 287.59) rotate(90)" style="fill:#263238"></rect><rect x="148.13" y="432.75" width="2.25" height="2.86" transform="translate(583.43 284.91) rotate(90)" style="fill:#FFC727"></rect><polygon points="154.11 434.46 154.11 433.88 150.69 433.78 150.69 434.57 154.11 434.46" style="fill:#FFC727"></polygon><polygon points="150.69 434.57 150.69 433.78 151.66 433.81 151.51 434.54 150.69 434.57" style="opacity:0.1"></polygon></g></svg>