<svg width="195" height="49" viewBox="0 0 195 49" fill="none" xmlns="http://www.w3.org/2000/svg">
<g filter="url(#filter0_i_212_3)">
<path fill-rule="evenodd" clip-rule="evenodd" d="M39 27.4116C39 34.364 33.1797 40 26 40C18.8203 40 13 34.364 13 27.4116C13 20.4591 25.9926 3 25.9926 3C25.9926 3 39 20.4591 39 27.4116Z" fill="#DD105E"/>
<path d="M38.5 27.4116C38.5 34.0728 32.9188 39.5 26 39.5C19.0812 39.5 13.5 34.0728 13.5 27.4116C13.5 25.7926 14.2675 23.485 15.4833 20.8754C16.6895 18.2863 18.3021 15.471 19.9211 12.8623C21.5391 10.2552 23.1578 7.86338 24.3725 6.12276C24.9797 5.25268 25.4856 4.54586 25.8394 4.05689C25.8942 3.98106 25.9455 3.91048 25.9928 3.84535C26.0403 3.91054 26.0916 3.9812 26.1466 4.05711C26.5008 4.54608 27.0072 5.2529 27.6151 6.12298C28.8312 7.8636 30.4518 10.2555 32.0716 12.8625C33.6924 15.4713 35.3069 18.2865 36.5145 20.8756C37.7317 23.4852 38.5 25.7927 38.5 27.4116Z" stroke="black" stroke-opacity="0.1"/>
<path fill-rule="evenodd" clip-rule="evenodd" d="M32 28.3702C32 36.45 24.8366 43 16 43C7.16344 43 0 36.45 0 28.3702C0 20.2904 15.9909 0 15.9909 0C15.9909 0 32 20.2904 32 28.3702Z" fill="#DD105E"/>
<path d="M31.5 28.3702C31.5 36.1327 24.6035 42.5 16 42.5C7.39651 42.5 0.5 36.1327 0.5 28.3702C0.5 26.4761 1.44976 23.7844 2.94697 20.7499C4.43326 17.7375 6.41977 14.4629 8.41327 11.4298C10.4056 8.39844 12.3988 5.61747 13.8944 3.59379C14.642 2.58218 15.2649 1.76036 15.7006 1.19176C15.8095 1.04974 15.9066 0.923535 15.9911 0.814118C16.0757 0.923586 16.173 1.04987 16.2821 1.19198C16.7183 1.76058 17.3419 2.5824 18.0904 3.59401C19.5877 5.61769 21.5831 8.39865 23.5777 11.43C25.5735 14.4631 27.5623 17.7377 29.0503 20.7501C30.5492 23.7846 31.5 26.4763 31.5 28.3702Z" stroke="black" stroke-opacity="0.1"/>
</g>
<path d="M52.032 30.672C52.656 31.608 53.448 32.304 54.408 32.76C55.392 33.192 56.4 33.408 57.432 33.408C58.008 33.408 58.596 33.324 59.196 33.156C59.796 32.964 60.336 32.688 60.816 32.328C61.32 31.968 61.728 31.524 62.04 30.996C62.352 30.468 62.508 29.856 62.508 29.16C62.508 28.176 62.196 27.432 61.572 26.928C60.948 26.4 60.168 25.968 59.232 25.632C58.32 25.272 57.312 24.936 56.208 24.624C55.128 24.288 54.12 23.832 53.184 23.256C52.272 22.68 51.504 21.912 50.88 20.952C50.256 19.968 49.944 18.648 49.944 16.992C49.944 16.248 50.1 15.456 50.412 14.616C50.748 13.776 51.264 13.008 51.96 12.312C52.656 11.616 53.544 11.04 54.624 10.584C55.728 10.104 57.048 9.864 58.584 9.864C59.976 9.864 61.308 10.056 62.58 10.44C63.852 10.824 64.968 11.604 65.928 12.78L63.12 15.336C62.688 14.664 62.076 14.124 61.284 13.716C60.492 13.308 59.592 13.104 58.584 13.104C57.624 13.104 56.82 13.236 56.172 13.5C55.548 13.74 55.044 14.064 54.66 14.472C54.276 14.856 54 15.276 53.832 15.732C53.688 16.188 53.616 16.608 53.616 16.992C53.616 18.072 53.928 18.9 54.552 19.476C55.176 20.052 55.944 20.52 56.856 20.88C57.792 21.24 58.8 21.564 59.88 21.852C60.984 22.14 61.992 22.548 62.904 23.076C63.84 23.58 64.62 24.276 65.244 25.164C65.868 26.028 66.18 27.228 66.18 28.764C66.18 29.988 65.94 31.092 65.46 32.076C65.004 33.06 64.38 33.888 63.588 34.56C62.796 35.232 61.86 35.748 60.78 36.108C59.7 36.468 58.548 36.648 57.324 36.648C55.692 36.648 54.144 36.36 52.68 35.784C51.216 35.208 50.052 34.32 49.188 33.12L52.032 30.672ZM85.5719 36H82.3319V33.372H82.2599C81.8519 34.284 81.1439 35.028 80.1359 35.604C79.1279 36.156 77.9639 36.432 76.6439 36.432C75.8039 36.432 75.0119 36.3 74.2679 36.036C73.5239 35.796 72.8639 35.412 72.2879 34.884C71.7359 34.356 71.2919 33.684 70.9559 32.868C70.6199 32.028 70.4519 31.044 70.4519 29.916V18.936H73.6919V29.016C73.6919 29.808 73.7999 30.492 74.0159 31.068C74.2319 31.62 74.5199 32.076 74.8799 32.436C75.2399 32.772 75.6479 33.024 76.1039 33.192C76.5839 33.336 77.0759 33.408 77.5799 33.408C78.2519 33.408 78.8759 33.3 79.4519 33.084C80.0279 32.868 80.5319 32.532 80.9639 32.076C81.3959 31.596 81.7319 30.996 81.9719 30.276C82.2119 29.556 82.3319 28.704 82.3319 27.72V18.936H85.5719V36ZM107.556 35.856C107.556 37.152 107.328 38.328 106.872 39.384C106.44 40.464 105.816 41.388 105 42.156C104.184 42.948 103.2 43.56 102.048 43.992C100.896 44.424 99.6238 44.64 98.2318 44.64C96.5998 44.64 95.0998 44.412 93.7318 43.956C92.3878 43.5 91.1038 42.708 89.8798 41.58L92.0758 38.844C92.9158 39.756 93.8278 40.44 94.8118 40.896C95.7958 41.376 96.9118 41.616 98.1598 41.616C99.3598 41.616 100.356 41.436 101.148 41.076C101.94 40.74 102.564 40.296 103.02 39.744C103.5 39.192 103.836 38.556 104.028 37.836C104.22 37.14 104.316 36.432 104.316 35.712V33.192H104.208C103.584 34.224 102.732 34.992 101.652 35.496C100.596 35.976 99.4798 36.216 98.3038 36.216C97.0558 36.216 95.8918 36 94.8118 35.568C93.7558 35.112 92.8438 34.5 92.0758 33.732C91.3078 32.94 90.7078 32.016 90.2758 30.96C89.8438 29.88 89.6278 28.716 89.6278 27.468C89.6278 26.22 89.8318 25.056 90.2398 23.976C90.6478 22.872 91.2238 21.912 91.9678 21.096C92.7358 20.28 93.6478 19.644 94.7038 19.188C95.7838 18.732 96.9838 18.504 98.3038 18.504C99.4558 18.504 100.572 18.756 101.652 19.26C102.756 19.764 103.62 20.472 104.244 21.384H104.316V18.936H107.556V35.856ZM98.6998 21.528C97.8358 21.528 97.0558 21.684 96.3598 21.996C95.6638 22.284 95.0758 22.692 94.5958 23.22C94.1158 23.724 93.7438 24.348 93.4798 25.092C93.2158 25.812 93.0838 26.604 93.0838 27.468C93.0838 29.196 93.5878 30.588 94.5958 31.644C95.6038 32.676 96.9718 33.192 98.6998 33.192C100.428 33.192 101.796 32.676 102.804 31.644C103.812 30.588 104.316 29.196 104.316 27.468C104.316 26.604 104.184 25.812 103.92 25.092C103.656 24.348 103.284 23.724 102.804 23.22C102.324 22.692 101.736 22.284 101.04 21.996C100.344 21.684 99.5638 21.528 98.6998 21.528ZM112.536 21.024C113.448 20.184 114.504 19.56 115.704 19.152C116.904 18.72 118.104 18.504 119.304 18.504C120.552 18.504 121.62 18.66 122.508 18.972C123.42 19.284 124.164 19.704 124.74 20.232C125.316 20.76 125.736 21.372 126 22.068C126.288 22.74 126.432 23.448 126.432 24.192V32.904C126.432 33.504 126.444 34.056 126.468 34.56C126.492 35.064 126.528 35.544 126.576 36H123.696C123.624 35.136 123.588 34.272 123.588 33.408H123.516C122.796 34.512 121.944 35.292 120.96 35.748C119.976 36.204 118.836 36.432 117.54 36.432C116.748 36.432 115.992 36.324 115.272 36.108C114.552 35.892 113.916 35.568 113.364 35.136C112.836 34.704 112.416 34.176 112.104 33.552C111.792 32.904 111.636 32.16 111.636 31.32C111.636 30.216 111.876 29.292 112.356 28.548C112.86 27.804 113.532 27.204 114.372 26.748C115.236 26.268 116.232 25.932 117.36 25.74C118.512 25.524 119.736 25.416 121.032 25.416H123.408V24.696C123.408 24.264 123.324 23.832 123.156 23.4C122.988 22.968 122.736 22.584 122.4 22.248C122.064 21.888 121.644 21.612 121.14 21.42C120.636 21.204 120.036 21.096 119.34 21.096C118.716 21.096 118.164 21.156 117.684 21.276C117.228 21.396 116.808 21.552 116.424 21.744C116.04 21.912 115.692 22.116 115.38 22.356C115.068 22.596 114.768 22.824 114.48 23.04L112.536 21.024ZM121.68 27.792C120.912 27.792 120.12 27.84 119.304 27.936C118.512 28.008 117.78 28.164 117.108 28.404C116.46 28.644 115.92 28.98 115.488 29.412C115.08 29.844 114.876 30.396 114.876 31.068C114.876 32.052 115.2 32.76 115.848 33.192C116.52 33.624 117.42 33.84 118.548 33.84C119.436 33.84 120.192 33.696 120.816 33.408C121.44 33.096 121.944 32.7 122.328 32.22C122.712 31.74 122.988 31.212 123.156 30.636C123.324 30.036 123.408 29.448 123.408 28.872V27.792H121.68ZM131.132 18.936H134.372V21.564H134.444C134.66 21.108 134.948 20.7 135.308 20.34C135.668 19.956 136.064 19.632 136.496 19.368C136.952 19.104 137.444 18.9 137.972 18.756C138.5 18.588 139.028 18.504 139.556 18.504C140.084 18.504 140.564 18.576 140.996 18.72L140.852 22.212C140.588 22.14 140.324 22.08 140.06 22.032C139.796 21.984 139.532 21.96 139.268 21.96C137.684 21.96 136.472 22.404 135.632 23.292C134.792 24.18 134.372 25.56 134.372 27.432V36H131.132V18.936ZM144.708 8.784H147.948V36H144.708V8.784ZM155.732 27.468C155.732 28.332 155.864 29.136 156.128 29.88C156.392 30.6 156.764 31.224 157.244 31.752C157.724 32.256 158.312 32.664 159.008 32.976C159.704 33.264 160.484 33.408 161.348 33.408C162.212 33.408 162.992 33.264 163.688 32.976C164.384 32.664 164.972 32.256 165.452 31.752C165.932 31.224 166.304 30.6 166.568 29.88C166.832 29.136 166.964 28.332 166.964 27.468C166.964 26.604 166.832 25.812 166.568 25.092C166.304 24.348 165.932 23.724 165.452 23.22C164.972 22.692 164.384 22.284 163.688 21.996C162.992 21.684 162.212 21.528 161.348 21.528C160.484 21.528 159.704 21.684 159.008 21.996C158.312 22.284 157.724 22.692 157.244 23.22C156.764 23.724 156.392 24.348 156.128 25.092C155.864 25.812 155.732 26.604 155.732 27.468ZM152.276 27.468C152.276 26.22 152.504 25.056 152.96 23.976C153.44 22.896 154.088 21.948 154.904 21.132C155.72 20.316 156.68 19.68 157.784 19.224C158.888 18.744 160.076 18.504 161.348 18.504C162.62 18.504 163.808 18.744 164.912 19.224C166.016 19.68 166.976 20.316 167.792 21.132C168.608 21.948 169.244 22.896 169.7 23.976C170.18 25.056 170.42 26.22 170.42 27.468C170.42 28.716 170.18 29.892 169.7 30.996C169.244 32.076 168.608 33.024 167.792 33.84C166.976 34.632 166.016 35.268 164.912 35.748C163.808 36.204 162.62 36.432 161.348 36.432C160.076 36.432 158.888 36.204 157.784 35.748C156.68 35.268 155.72 34.632 154.904 33.84C154.088 33.024 153.44 32.076 152.96 30.996C152.504 29.892 152.276 28.716 152.276 27.468ZM191.579 35.856C191.579 37.152 191.351 38.328 190.895 39.384C190.463 40.464 189.839 41.388 189.023 42.156C188.207 42.948 187.223 43.56 186.071 43.992C184.919 44.424 183.647 44.64 182.255 44.64C180.623 44.64 179.123 44.412 177.755 43.956C176.411 43.5 175.127 42.708 173.903 41.58L176.099 38.844C176.939 39.756 177.851 40.44 178.835 40.896C179.819 41.376 180.935 41.616 182.183 41.616C183.383 41.616 184.379 41.436 185.171 41.076C185.963 40.74 186.587 40.296 187.043 39.744C187.523 39.192 187.859 38.556 188.051 37.836C188.243 37.14 188.339 36.432 188.339 35.712V33.192H188.231C187.607 34.224 186.755 34.992 185.675 35.496C184.619 35.976 183.503 36.216 182.327 36.216C181.079 36.216 179.915 36 178.835 35.568C177.779 35.112 176.867 34.5 176.099 33.732C175.331 32.94 174.731 32.016 174.299 30.96C173.867 29.88 173.651 28.716 173.651 27.468C173.651 26.22 173.855 25.056 174.263 23.976C174.671 22.872 175.247 21.912 175.991 21.096C176.759 20.28 177.671 19.644 178.727 19.188C179.807 18.732 181.007 18.504 182.327 18.504C183.479 18.504 184.595 18.756 185.675 19.26C186.779 19.764 187.643 20.472 188.267 21.384H188.339V18.936H191.579V35.856ZM182.723 21.528C181.859 21.528 181.079 21.684 180.383 21.996C179.687 22.284 179.099 22.692 178.619 23.22C178.139 23.724 177.767 24.348 177.503 25.092C177.239 25.812 177.107 26.604 177.107 27.468C177.107 29.196 177.611 30.588 178.619 31.644C179.627 32.676 180.995 33.192 182.723 33.192C184.451 33.192 185.819 32.676 186.827 31.644C187.835 30.588 188.339 29.196 188.339 27.468C188.339 26.604 188.207 25.812 187.943 25.092C187.679 24.348 187.307 23.724 186.827 23.22C186.347 22.692 185.759 22.284 185.063 21.996C184.367 21.684 183.587 21.528 182.723 21.528Z" fill="#DD105E"/>
<defs>
<filter id="filter0_i_212_3" x="0" y="0" width="39" height="47" filterUnits="userSpaceOnUse" color-interpolation-filters="sRGB">
<feFlood flood-opacity="0" result="BackgroundImageFix"/>
<feBlend mode="normal" in="SourceGraphic" in2="BackgroundImageFix" result="shape"/>
<feColorMatrix in="SourceAlpha" type="matrix" values="0 0 0 0 0 0 0 0 0 0 0 0 0 0 0 0 0 0 127 0" result="hardAlpha"/>
<feOffset dy="4"/>
<feGaussianBlur stdDeviation="4"/>
<feComposite in2="hardAlpha" operator="arithmetic" k2="-1" k3="1"/>
<feColorMatrix type="matrix" values="0 0 0 0 0 0 0 0 0 0 0 0 0 0 0 0 0 0 0.25 0"/>
<feBlend mode="normal" in2="shape" result="effect1_innerShadow_212_3"/>
</filter>
</defs>
</svg>
