<svg width="225" height="78" viewBox="0 0 225 78" fill="none" xmlns="http://www.w3.org/2000/svg">
<path d="M82.032 45.672C82.656 46.608 83.448 47.304 84.408 47.76C85.392 48.192 86.4 48.408 87.432 48.408C88.008 48.408 88.596 48.324 89.196 48.156C89.796 47.964 90.336 47.688 90.816 47.328C91.32 46.968 91.728 46.524 92.04 45.996C92.352 45.468 92.508 44.856 92.508 44.16C92.508 43.176 92.196 42.432 91.572 41.928C90.948 41.4 90.168 40.968 89.232 40.632C88.32 40.272 87.312 39.936 86.208 39.624C85.128 39.288 84.12 38.832 83.184 38.256C82.272 37.68 81.504 36.912 80.88 35.952C80.256 34.968 79.944 33.648 79.944 31.992C79.944 31.248 80.1 30.456 80.412 29.616C80.748 28.776 81.264 28.008 81.96 27.312C82.656 26.616 83.544 26.04 84.624 25.584C85.728 25.104 87.048 24.864 88.584 24.864C89.976 24.864 91.308 25.056 92.58 25.44C93.852 25.824 94.968 26.604 95.928 27.78L93.12 30.336C92.688 29.664 92.076 29.124 91.284 28.716C90.492 28.308 89.592 28.104 88.584 28.104C87.624 28.104 86.82 28.236 86.172 28.5C85.548 28.74 85.044 29.064 84.66 29.472C84.276 29.856 84 30.276 83.832 30.732C83.688 31.188 83.616 31.608 83.616 31.992C83.616 33.072 83.928 33.9 84.552 34.476C85.176 35.052 85.944 35.52 86.856 35.88C87.792 36.24 88.8 36.564 89.88 36.852C90.984 37.14 91.992 37.548 92.904 38.076C93.84 38.58 94.62 39.276 95.244 40.164C95.868 41.028 96.18 42.228 96.18 43.764C96.18 44.988 95.94 46.092 95.46 47.076C95.004 48.06 94.38 48.888 93.588 49.56C92.796 50.232 91.86 50.748 90.78 51.108C89.7 51.468 88.548 51.648 87.324 51.648C85.692 51.648 84.144 51.36 82.68 50.784C81.216 50.208 80.052 49.32 79.188 48.12L82.032 45.672ZM115.572 51H112.332V48.372H112.26C111.852 49.284 111.144 50.028 110.136 50.604C109.128 51.156 107.964 51.432 106.644 51.432C105.804 51.432 105.012 51.3 104.268 51.036C103.524 50.796 102.864 50.412 102.288 49.884C101.736 49.356 101.292 48.684 100.956 47.868C100.62 47.028 100.452 46.044 100.452 44.916V33.936H103.692V44.016C103.692 44.808 103.8 45.492 104.016 46.068C104.232 46.62 104.52 47.076 104.88 47.436C105.24 47.772 105.648 48.024 106.104 48.192C106.584 48.336 107.076 48.408 107.58 48.408C108.252 48.408 108.876 48.3 109.452 48.084C110.028 47.868 110.532 47.532 110.964 47.076C111.396 46.596 111.732 45.996 111.972 45.276C112.212 44.556 112.332 43.704 112.332 42.72V33.936H115.572V51ZM137.556 50.856C137.556 52.152 137.328 53.328 136.872 54.384C136.44 55.464 135.816 56.388 135 57.156C134.184 57.948 133.2 58.56 132.048 58.992C130.896 59.424 129.624 59.64 128.232 59.64C126.6 59.64 125.1 59.412 123.732 58.956C122.388 58.5 121.104 57.708 119.88 56.58L122.076 53.844C122.916 54.756 123.828 55.44 124.812 55.896C125.796 56.376 126.912 56.616 128.16 56.616C129.36 56.616 130.356 56.436 131.148 56.076C131.94 55.74 132.564 55.296 133.02 54.744C133.5 54.192 133.836 53.556 134.028 52.836C134.22 52.14 134.316 51.432 134.316 50.712V48.192H134.208C133.584 49.224 132.732 49.992 131.652 50.496C130.596 50.976 129.48 51.216 128.304 51.216C127.056 51.216 125.892 51 124.812 50.568C123.756 50.112 122.844 49.5 122.076 48.732C121.308 47.94 120.708 47.016 120.276 45.96C119.844 44.88 119.628 43.716 119.628 42.468C119.628 41.22 119.832 40.056 120.24 38.976C120.648 37.872 121.224 36.912 121.968 36.096C122.736 35.28 123.648 34.644 124.704 34.188C125.784 33.732 126.984 33.504 128.304 33.504C129.456 33.504 130.572 33.756 131.652 34.26C132.756 34.764 133.62 35.472 134.244 36.384H134.316V33.936H137.556V50.856ZM128.7 36.528C127.836 36.528 127.056 36.684 126.36 36.996C125.664 37.284 125.076 37.692 124.596 38.22C124.116 38.724 123.744 39.348 123.48 40.092C123.216 40.812 123.084 41.604 123.084 42.468C123.084 44.196 123.588 45.588 124.596 46.644C125.604 47.676 126.972 48.192 128.7 48.192C130.428 48.192 131.796 47.676 132.804 46.644C133.812 45.588 134.316 44.196 134.316 42.468C134.316 41.604 134.184 40.812 133.92 40.092C133.656 39.348 133.284 38.724 132.804 38.22C132.324 37.692 131.736 37.284 131.04 36.996C130.344 36.684 129.564 36.528 128.7 36.528ZM142.536 36.024C143.448 35.184 144.504 34.56 145.704 34.152C146.904 33.72 148.104 33.504 149.304 33.504C150.552 33.504 151.62 33.66 152.508 33.972C153.42 34.284 154.164 34.704 154.74 35.232C155.316 35.76 155.736 36.372 156 37.068C156.288 37.74 156.432 38.448 156.432 39.192V47.904C156.432 48.504 156.444 49.056 156.468 49.56C156.492 50.064 156.528 50.544 156.576 51H153.696C153.624 50.136 153.588 49.272 153.588 48.408H153.516C152.796 49.512 151.944 50.292 150.96 50.748C149.976 51.204 148.836 51.432 147.54 51.432C146.748 51.432 145.992 51.324 145.272 51.108C144.552 50.892 143.916 50.568 143.364 50.136C142.836 49.704 142.416 49.176 142.104 48.552C141.792 47.904 141.636 47.16 141.636 46.32C141.636 45.216 141.876 44.292 142.356 43.548C142.86 42.804 143.532 42.204 144.372 41.748C145.236 41.268 146.232 40.932 147.36 40.74C148.512 40.524 149.736 40.416 151.032 40.416H153.408V39.696C153.408 39.264 153.324 38.832 153.156 38.4C152.988 37.968 152.736 37.584 152.4 37.248C152.064 36.888 151.644 36.612 151.14 36.42C150.636 36.204 150.036 36.096 149.34 36.096C148.716 36.096 148.164 36.156 147.684 36.276C147.228 36.396 146.808 36.552 146.424 36.744C146.04 36.912 145.692 37.116 145.38 37.356C145.068 37.596 144.768 37.824 144.48 38.04L142.536 36.024ZM151.68 42.792C150.912 42.792 150.12 42.84 149.304 42.936C148.512 43.008 147.78 43.164 147.108 43.404C146.46 43.644 145.92 43.98 145.488 44.412C145.08 44.844 144.876 45.396 144.876 46.068C144.876 47.052 145.2 47.76 145.848 48.192C146.52 48.624 147.42 48.84 148.548 48.84C149.436 48.84 150.192 48.696 150.816 48.408C151.44 48.096 151.944 47.7 152.328 47.22C152.712 46.74 152.988 46.212 153.156 45.636C153.324 45.036 153.408 44.448 153.408 43.872V42.792H151.68ZM161.132 33.936H164.372V36.564H164.444C164.66 36.108 164.948 35.7 165.308 35.34C165.668 34.956 166.064 34.632 166.496 34.368C166.952 34.104 167.444 33.9 167.972 33.756C168.5 33.588 169.028 33.504 169.556 33.504C170.084 33.504 170.564 33.576 170.996 33.72L170.852 37.212C170.588 37.14 170.324 37.08 170.06 37.032C169.796 36.984 169.532 36.96 169.268 36.96C167.684 36.96 166.472 37.404 165.632 38.292C164.792 39.18 164.372 40.56 164.372 42.432V51H161.132V33.936ZM174.708 23.784H177.948V51H174.708V23.784ZM185.732 42.468C185.732 43.332 185.864 44.136 186.128 44.88C186.392 45.6 186.764 46.224 187.244 46.752C187.724 47.256 188.312 47.664 189.008 47.976C189.704 48.264 190.484 48.408 191.348 48.408C192.212 48.408 192.992 48.264 193.688 47.976C194.384 47.664 194.972 47.256 195.452 46.752C195.932 46.224 196.304 45.6 196.568 44.88C196.832 44.136 196.964 43.332 196.964 42.468C196.964 41.604 196.832 40.812 196.568 40.092C196.304 39.348 195.932 38.724 195.452 38.22C194.972 37.692 194.384 37.284 193.688 36.996C192.992 36.684 192.212 36.528 191.348 36.528C190.484 36.528 189.704 36.684 189.008 36.996C188.312 37.284 187.724 37.692 187.244 38.22C186.764 38.724 186.392 39.348 186.128 40.092C185.864 40.812 185.732 41.604 185.732 42.468ZM182.276 42.468C182.276 41.22 182.504 40.056 182.96 38.976C183.44 37.896 184.088 36.948 184.904 36.132C185.72 35.316 186.68 34.68 187.784 34.224C188.888 33.744 190.076 33.504 191.348 33.504C192.62 33.504 193.808 33.744 194.912 34.224C196.016 34.68 196.976 35.316 197.792 36.132C198.608 36.948 199.244 37.896 199.7 38.976C200.18 40.056 200.42 41.22 200.42 42.468C200.42 43.716 200.18 44.892 199.7 45.996C199.244 47.076 198.608 48.024 197.792 48.84C196.976 49.632 196.016 50.268 194.912 50.748C193.808 51.204 192.62 51.432 191.348 51.432C190.076 51.432 188.888 51.204 187.784 50.748C186.68 50.268 185.72 49.632 184.904 48.84C184.088 48.024 183.44 47.076 182.96 45.996C182.504 44.892 182.276 43.716 182.276 42.468ZM221.579 50.856C221.579 52.152 221.351 53.328 220.895 54.384C220.463 55.464 219.839 56.388 219.023 57.156C218.207 57.948 217.223 58.56 216.071 58.992C214.919 59.424 213.647 59.64 212.255 59.64C210.623 59.64 209.123 59.412 207.755 58.956C206.411 58.5 205.127 57.708 203.903 56.58L206.099 53.844C206.939 54.756 207.851 55.44 208.835 55.896C209.819 56.376 210.935 56.616 212.183 56.616C213.383 56.616 214.379 56.436 215.171 56.076C215.963 55.74 216.587 55.296 217.043 54.744C217.523 54.192 217.859 53.556 218.051 52.836C218.243 52.14 218.339 51.432 218.339 50.712V48.192H218.231C217.607 49.224 216.755 49.992 215.675 50.496C214.619 50.976 213.503 51.216 212.327 51.216C211.079 51.216 209.915 51 208.835 50.568C207.779 50.112 206.867 49.5 206.099 48.732C205.331 47.94 204.731 47.016 204.299 45.96C203.867 44.88 203.651 43.716 203.651 42.468C203.651 41.22 203.855 40.056 204.263 38.976C204.671 37.872 205.247 36.912 205.991 36.096C206.759 35.28 207.671 34.644 208.727 34.188C209.807 33.732 211.007 33.504 212.327 33.504C213.479 33.504 214.595 33.756 215.675 34.26C216.779 34.764 217.643 35.472 218.267 36.384H218.339V33.936H221.579V50.856ZM212.723 36.528C211.859 36.528 211.079 36.684 210.383 36.996C209.687 37.284 209.099 37.692 208.619 38.22C208.139 38.724 207.767 39.348 207.503 40.092C207.239 40.812 207.107 41.604 207.107 42.468C207.107 44.196 207.611 45.588 208.619 46.644C209.627 47.676 210.995 48.192 212.723 48.192C214.451 48.192 215.819 47.676 216.827 46.644C217.835 45.588 218.339 44.196 218.339 42.468C218.339 41.604 218.207 40.812 217.943 40.092C217.679 39.348 217.307 38.724 216.827 38.22C216.347 37.692 215.759 37.284 215.063 36.996C214.367 36.684 213.587 36.528 212.723 36.528Z" fill="white"/>
<g filter="url(#filter0_i_26_101)">
<path fill-rule="evenodd" clip-rule="evenodd" d="M69.9999 49.2002C69.9999 61.6789 59.5532 71.7949 46.6666 71.7949C33.7799 71.7949 23.3333 61.6789 23.3333 49.2002C23.3333 36.7215 46.6533 5.38461 46.6533 5.38461C46.6533 5.38461 69.9999 36.7215 69.9999 49.2002Z" fill="white"/>
<path d="M69.4999 49.2002C69.4999 61.3877 59.2924 71.2949 46.6666 71.2949C34.0408 71.2949 23.8333 61.3877 23.8333 49.2002C23.8333 46.1997 25.2462 41.9886 27.4302 37.3007C29.6046 32.6335 32.5082 27.5654 35.4181 22.8766C38.327 18.1894 41.2367 13.8901 43.4195 10.7621C44.5108 9.19835 45.4201 7.92785 46.0563 7.0486C46.2956 6.71784 46.4963 6.44247 46.6535 6.22771C46.8109 6.44251 47.0118 6.71795 47.2515 7.04882C47.8885 7.92807 48.7988 9.19857 49.8913 10.7623C52.0767 13.8904 54.9897 18.1896 57.9019 22.8768C60.8152 27.5657 63.722 32.6338 65.8989 37.3009C68.0854 41.9888 69.4999 46.1998 69.4999 49.2002Z" stroke="black" stroke-opacity="0.1"/>
<path fill-rule="evenodd" clip-rule="evenodd" d="M57.4359 50.9209C57.4359 65.4231 44.5784 77.1795 28.7179 77.1795C12.8575 77.1795 0 65.4231 0 50.9209C0 36.4186 28.7016 0 28.7016 0C28.7016 0 57.4359 36.4186 57.4359 50.9209Z" fill="white"/>
<path d="M56.9359 50.9209C56.9359 65.1058 44.3454 76.6795 28.7179 76.6795C13.0905 76.6795 0.5 65.1058 0.5 50.9209C0.5 47.4212 2.24418 42.5173 4.93301 37.0676C7.61094 31.64 11.1863 25.7473 14.7686 20.2967C18.3498 14.8479 21.9318 9.85023 24.619 6.21418C25.9625 4.39639 27.0819 2.91947 27.8652 1.89731C28.214 1.44205 28.4962 1.07702 28.7018 0.812306C28.9076 1.07704 29.1902 1.44214 29.5395 1.89753C30.3237 2.91969 31.4444 4.39661 32.7894 6.2144C35.4797 9.85045 39.0658 14.8481 42.651 20.2969C46.2375 25.7475 49.8169 31.6402 52.4979 37.0678C55.1898 42.5175 56.9359 47.4213 56.9359 50.9209Z" stroke="black" stroke-opacity="0.1"/>
</g>
<defs>
<filter id="filter0_i_26_101" x="0" y="0" width="70" height="81.1795" filterUnits="userSpaceOnUse" color-interpolation-filters="sRGB">
<feFlood flood-opacity="0" result="BackgroundImageFix"/>
<feBlend mode="normal" in="SourceGraphic" in2="BackgroundImageFix" result="shape"/>
<feColorMatrix in="SourceAlpha" type="matrix" values="0 0 0 0 0 0 0 0 0 0 0 0 0 0 0 0 0 0 127 0" result="hardAlpha"/>
<feOffset dy="4"/>
<feGaussianBlur stdDeviation="4"/>
<feComposite in2="hardAlpha" operator="arithmetic" k2="-1" k3="1"/>
<feColorMatrix type="matrix" values="0 0 0 0 0 0 0 0 0 0 0 0 0 0 0 0 0 0 0.25 0"/>
<feBlend mode="normal" in2="shape" result="effect1_innerShadow_26_101"/>
</filter>
</defs>
</svg>
