<svg width="147" height="83" viewBox="0 0 147 83" fill="none" xmlns="http://www.w3.org/2000/svg">
<path d="M4.032 64.672C4.656 65.608 5.448 66.304 6.408 66.76C7.392 67.192 8.4 67.408 9.432 67.408C10.008 67.408 10.596 67.324 11.196 67.156C11.796 66.964 12.336 66.688 12.816 66.328C13.32 65.968 13.728 65.524 14.04 64.996C14.352 64.468 14.508 63.856 14.508 63.16C14.508 62.176 14.196 61.432 13.572 60.928C12.948 60.4 12.168 59.968 11.232 59.632C10.32 59.272 9.312 58.936 8.208 58.624C7.128 58.288 6.12 57.832 5.184 57.256C4.272 56.68 3.504 55.912 2.88 54.952C2.256 53.968 1.944 52.648 1.944 50.992C1.944 50.248 2.1 49.456 2.412 48.616C2.748 47.776 3.264 47.008 3.96 46.312C4.656 45.616 5.544 45.04 6.624 44.584C7.728 44.104 9.048 43.864 10.584 43.864C11.976 43.864 13.308 44.056 14.58 44.44C15.852 44.824 16.968 45.604 17.928 46.78L15.12 49.336C14.688 48.664 14.076 48.124 13.284 47.716C12.492 47.308 11.592 47.104 10.584 47.104C9.624 47.104 8.82 47.236 8.172 47.5C7.548 47.74 7.044 48.064 6.66 48.472C6.276 48.856 6 49.276 5.832 49.732C5.688 50.188 5.616 50.608 5.616 50.992C5.616 52.072 5.928 52.9 6.552 53.476C7.176 54.052 7.944 54.52 8.856 54.88C9.792 55.24 10.8 55.564 11.88 55.852C12.984 56.14 13.992 56.548 14.904 57.076C15.84 57.58 16.62 58.276 17.244 59.164C17.868 60.028 18.18 61.228 18.18 62.764C18.18 63.988 17.94 65.092 17.46 66.076C17.004 67.06 16.38 67.888 15.588 68.56C14.796 69.232 13.86 69.748 12.78 70.108C11.7 70.468 10.548 70.648 9.324 70.648C7.692 70.648 6.144 70.36 4.68 69.784C3.216 69.208 2.052 68.32 1.188 67.12L4.032 64.672ZM37.5719 70H34.3319V67.372H34.2599C33.8519 68.284 33.1439 69.028 32.1359 69.604C31.1279 70.156 29.9639 70.432 28.6439 70.432C27.8039 70.432 27.0119 70.3 26.2679 70.036C25.5239 69.796 24.8639 69.412 24.2879 68.884C23.7359 68.356 23.2919 67.684 22.9559 66.868C22.6199 66.028 22.4519 65.044 22.4519 63.916V52.936H25.6919V63.016C25.6919 63.808 25.7999 64.492 26.0159 65.068C26.2319 65.62 26.5199 66.076 26.8799 66.436C27.2399 66.772 27.6479 67.024 28.1039 67.192C28.5839 67.336 29.0759 67.408 29.5799 67.408C30.2519 67.408 30.8759 67.3 31.4519 67.084C32.0279 66.868 32.5319 66.532 32.9639 66.076C33.3959 65.596 33.7319 64.996 33.9719 64.276C34.2119 63.556 34.3319 62.704 34.3319 61.72V52.936H37.5719V70ZM59.5558 69.856C59.5558 71.152 59.3278 72.328 58.8718 73.384C58.4398 74.464 57.8158 75.388 56.9998 76.156C56.1838 76.948 55.1998 77.56 54.0478 77.992C52.8958 78.424 51.6238 78.64 50.2318 78.64C48.5998 78.64 47.0998 78.412 45.7318 77.956C44.3878 77.5 43.1038 76.708 41.8798 75.58L44.0758 72.844C44.9158 73.756 45.8278 74.44 46.8118 74.896C47.7958 75.376 48.9118 75.616 50.1598 75.616C51.3598 75.616 52.3558 75.436 53.1478 75.076C53.9398 74.74 54.5638 74.296 55.0198 73.744C55.4998 73.192 55.8358 72.556 56.0278 71.836C56.2198 71.14 56.3158 70.432 56.3158 69.712V67.192H56.2078C55.5838 68.224 54.7318 68.992 53.6518 69.496C52.5958 69.976 51.4798 70.216 50.3038 70.216C49.0558 70.216 47.8918 70 46.8118 69.568C45.7558 69.112 44.8438 68.5 44.0758 67.732C43.3078 66.94 42.7078 66.016 42.2758 64.96C41.8438 63.88 41.6278 62.716 41.6278 61.468C41.6278 60.22 41.8318 59.056 42.2398 57.976C42.6478 56.872 43.2238 55.912 43.9678 55.096C44.7358 54.28 45.6478 53.644 46.7038 53.188C47.7838 52.732 48.9838 52.504 50.3038 52.504C51.4558 52.504 52.5718 52.756 53.6518 53.26C54.7558 53.764 55.6198 54.472 56.2438 55.384H56.3158V52.936H59.5558V69.856ZM50.6998 55.528C49.8358 55.528 49.0558 55.684 48.3598 55.996C47.6638 56.284 47.0758 56.692 46.5958 57.22C46.1158 57.724 45.7438 58.348 45.4798 59.092C45.2158 59.812 45.0838 60.604 45.0838 61.468C45.0838 63.196 45.5878 64.588 46.5958 65.644C47.6038 66.676 48.9718 67.192 50.6998 67.192C52.4278 67.192 53.7958 66.676 54.8038 65.644C55.8118 64.588 56.3158 63.196 56.3158 61.468C56.3158 60.604 56.1838 59.812 55.9198 59.092C55.6558 58.348 55.2838 57.724 54.8038 57.22C54.3238 56.692 53.7358 56.284 53.0398 55.996C52.3438 55.684 51.5638 55.528 50.6998 55.528ZM64.5356 55.024C65.4476 54.184 66.5036 53.56 67.7036 53.152C68.9036 52.72 70.1036 52.504 71.3036 52.504C72.5516 52.504 73.6196 52.66 74.5076 52.972C75.4196 53.284 76.1636 53.704 76.7396 54.232C77.3156 54.76 77.7356 55.372 77.9996 56.068C78.2876 56.74 78.4316 57.448 78.4316 58.192V66.904C78.4316 67.504 78.4436 68.056 78.4676 68.56C78.4916 69.064 78.5276 69.544 78.5756 70H75.6956C75.6236 69.136 75.5876 68.272 75.5876 67.408H75.5156C74.7956 68.512 73.9436 69.292 72.9596 69.748C71.9756 70.204 70.8356 70.432 69.5396 70.432C68.7476 70.432 67.9916 70.324 67.2716 70.108C66.5516 69.892 65.9156 69.568 65.3636 69.136C64.8356 68.704 64.4156 68.176 64.1036 67.552C63.7916 66.904 63.6356 66.16 63.6356 65.32C63.6356 64.216 63.8756 63.292 64.3556 62.548C64.8596 61.804 65.5316 61.204 66.3716 60.748C67.2356 60.268 68.2316 59.932 69.3596 59.74C70.5116 59.524 71.7356 59.416 73.0316 59.416H75.4076V58.696C75.4076 58.264 75.3236 57.832 75.1556 57.4C74.9876 56.968 74.7356 56.584 74.3996 56.248C74.0636 55.888 73.6436 55.612 73.1396 55.42C72.6356 55.204 72.0356 55.096 71.3396 55.096C70.7156 55.096 70.1636 55.156 69.6836 55.276C69.2276 55.396 68.8076 55.552 68.4236 55.744C68.0396 55.912 67.6916 56.116 67.3796 56.356C67.0676 56.596 66.7676 56.824 66.4796 57.04L64.5356 55.024ZM73.6796 61.792C72.9116 61.792 72.1196 61.84 71.3036 61.936C70.5116 62.008 69.7796 62.164 69.1076 62.404C68.4596 62.644 67.9196 62.98 67.4876 63.412C67.0796 63.844 66.8756 64.396 66.8756 65.068C66.8756 66.052 67.1996 66.76 67.8476 67.192C68.5196 67.624 69.4196 67.84 70.5476 67.84C71.4356 67.84 72.1916 67.696 72.8156 67.408C73.4396 67.096 73.9436 66.7 74.3276 66.22C74.7116 65.74 74.9876 65.212 75.1556 64.636C75.3236 64.036 75.4076 63.448 75.4076 62.872V61.792H73.6796ZM83.1316 52.936H86.3716V55.564H86.4436C86.6596 55.108 86.9476 54.7 87.3076 54.34C87.6676 53.956 88.0636 53.632 88.4956 53.368C88.9516 53.104 89.4436 52.9 89.9716 52.756C90.4996 52.588 91.0276 52.504 91.5556 52.504C92.0836 52.504 92.5636 52.576 92.9956 52.72L92.8516 56.212C92.5876 56.14 92.3236 56.08 92.0596 56.032C91.7956 55.984 91.5316 55.96 91.2676 55.96C89.6836 55.96 88.4716 56.404 87.6316 57.292C86.7916 58.18 86.3716 59.56 86.3716 61.432V70H83.1316V52.936ZM96.7078 42.784H99.9478V70H96.7078V42.784ZM107.732 61.468C107.732 62.332 107.864 63.136 108.128 63.88C108.392 64.6 108.764 65.224 109.244 65.752C109.724 66.256 110.312 66.664 111.008 66.976C111.704 67.264 112.484 67.408 113.348 67.408C114.212 67.408 114.992 67.264 115.688 66.976C116.384 66.664 116.972 66.256 117.452 65.752C117.932 65.224 118.304 64.6 118.568 63.88C118.832 63.136 118.964 62.332 118.964 61.468C118.964 60.604 118.832 59.812 118.568 59.092C118.304 58.348 117.932 57.724 117.452 57.22C116.972 56.692 116.384 56.284 115.688 55.996C114.992 55.684 114.212 55.528 113.348 55.528C112.484 55.528 111.704 55.684 111.008 55.996C110.312 56.284 109.724 56.692 109.244 57.22C108.764 57.724 108.392 58.348 108.128 59.092C107.864 59.812 107.732 60.604 107.732 61.468ZM104.276 61.468C104.276 60.22 104.504 59.056 104.96 57.976C105.44 56.896 106.088 55.948 106.904 55.132C107.72 54.316 108.68 53.68 109.784 53.224C110.888 52.744 112.076 52.504 113.348 52.504C114.62 52.504 115.808 52.744 116.912 53.224C118.016 53.68 118.976 54.316 119.792 55.132C120.608 55.948 121.244 56.896 121.7 57.976C122.18 59.056 122.42 60.22 122.42 61.468C122.42 62.716 122.18 63.892 121.7 64.996C121.244 66.076 120.608 67.024 119.792 67.84C118.976 68.632 118.016 69.268 116.912 69.748C115.808 70.204 114.62 70.432 113.348 70.432C112.076 70.432 110.888 70.204 109.784 69.748C108.68 69.268 107.72 68.632 106.904 67.84C106.088 67.024 105.44 66.076 104.96 64.996C104.504 63.892 104.276 62.716 104.276 61.468ZM143.579 69.856C143.579 71.152 143.351 72.328 142.895 73.384C142.463 74.464 141.839 75.388 141.023 76.156C140.207 76.948 139.223 77.56 138.071 77.992C136.919 78.424 135.647 78.64 134.255 78.64C132.623 78.64 131.123 78.412 129.755 77.956C128.411 77.5 127.127 76.708 125.903 75.58L128.099 72.844C128.939 73.756 129.851 74.44 130.835 74.896C131.819 75.376 132.935 75.616 134.183 75.616C135.383 75.616 136.379 75.436 137.171 75.076C137.963 74.74 138.587 74.296 139.043 73.744C139.523 73.192 139.859 72.556 140.051 71.836C140.243 71.14 140.339 70.432 140.339 69.712V67.192H140.231C139.607 68.224 138.755 68.992 137.675 69.496C136.619 69.976 135.503 70.216 134.327 70.216C133.079 70.216 131.915 70 130.835 69.568C129.779 69.112 128.867 68.5 128.099 67.732C127.331 66.94 126.731 66.016 126.299 64.96C125.867 63.88 125.651 62.716 125.651 61.468C125.651 60.22 125.855 59.056 126.263 57.976C126.671 56.872 127.247 55.912 127.991 55.096C128.759 54.28 129.671 53.644 130.727 53.188C131.807 52.732 133.007 52.504 134.327 52.504C135.479 52.504 136.595 52.756 137.675 53.26C138.779 53.764 139.643 54.472 140.267 55.384H140.339V52.936H143.579V69.856ZM134.723 55.528C133.859 55.528 133.079 55.684 132.383 55.996C131.687 56.284 131.099 56.692 130.619 57.22C130.139 57.724 129.767 58.348 129.503 59.092C129.239 59.812 129.107 60.604 129.107 61.468C129.107 63.196 129.611 64.588 130.619 65.644C131.627 66.676 132.995 67.192 134.723 67.192C136.451 67.192 137.819 66.676 138.827 65.644C139.835 64.588 140.339 63.196 140.339 61.468C140.339 60.604 140.207 59.812 139.943 59.092C139.679 58.348 139.307 57.724 138.827 57.22C138.347 56.692 137.759 56.284 137.063 55.996C136.367 55.684 135.587 55.528 134.723 55.528Z" fill="#DD105E"/>
<g filter="url(#filter0_i_121_6)">
<path fill-rule="evenodd" clip-rule="evenodd" d="M90 27.4116C90 34.364 84.1797 40 77 40C69.8203 40 64 34.364 64 27.4116C64 20.4591 76.9926 3 76.9926 3C76.9926 3 90 20.4591 90 27.4116Z" fill="#DD105E"/>
<path d="M89.5 27.4116C89.5 34.0728 83.9188 39.5 77 39.5C70.0812 39.5 64.5 34.0728 64.5 27.4116C64.5 25.7926 65.2675 23.485 66.4833 20.8754C67.6895 18.2863 69.3021 15.471 70.9211 12.8623C72.5391 10.2552 74.1578 7.86338 75.3725 6.12276C75.9797 5.25268 76.4856 4.54586 76.8394 4.05689C76.8942 3.98106 76.9455 3.91048 76.9928 3.84535C77.0403 3.91054 77.0916 3.9812 77.1466 4.05711C77.5008 4.54608 78.0072 5.2529 78.6151 6.12298C79.8312 7.8636 81.4518 10.2555 83.0716 12.8625C84.6924 15.4713 86.3069 18.2865 87.5145 20.8756C88.7317 23.4852 89.5 25.7927 89.5 27.4116Z" stroke="black" stroke-opacity="0.1"/>
<path fill-rule="evenodd" clip-rule="evenodd" d="M83 28.3702C83 36.45 75.8366 43 67 43C58.1634 43 51 36.45 51 28.3702C51 20.2904 66.9909 0 66.9909 0C66.9909 0 83 20.2904 83 28.3702Z" fill="#DD105E"/>
<path d="M82.5 28.3702C82.5 36.1327 75.6035 42.5 67 42.5C58.3965 42.5 51.5 36.1327 51.5 28.3702C51.5 26.4761 52.4498 23.7844 53.947 20.7499C55.4333 17.7375 57.4198 14.4629 59.4133 11.4298C61.4056 8.39844 63.3988 5.61747 64.8944 3.59379C65.642 2.58218 66.2649 1.76036 66.7006 1.19176C66.8095 1.04974 66.9066 0.923535 66.9911 0.814118C67.0757 0.923586 67.173 1.04987 67.2821 1.19198C67.7183 1.76058 68.3419 2.5824 69.0904 3.59401C70.5877 5.61769 72.5831 8.39865 74.5777 11.43C76.5735 14.4631 78.5623 17.7377 80.0503 20.7501C81.5492 23.7846 82.5 26.4763 82.5 28.3702Z" stroke="black" stroke-opacity="0.1"/>
</g>
<defs>
<filter id="filter0_i_121_6" x="51" y="0" width="39" height="47" filterUnits="userSpaceOnUse" color-interpolation-filters="sRGB">
<feFlood flood-opacity="0" result="BackgroundImageFix"/>
<feBlend mode="normal" in="SourceGraphic" in2="BackgroundImageFix" result="shape"/>
<feColorMatrix in="SourceAlpha" type="matrix" values="0 0 0 0 0 0 0 0 0 0 0 0 0 0 0 0 0 0 127 0" result="hardAlpha"/>
<feOffset dy="4"/>
<feGaussianBlur stdDeviation="4"/>
<feComposite in2="hardAlpha" operator="arithmetic" k2="-1" k3="1"/>
<feColorMatrix type="matrix" values="0 0 0 0 0 0 0 0 0 0 0 0 0 0 0 0 0 0 0.25 0"/>
<feBlend mode="normal" in2="shape" result="effect1_innerShadow_121_6"/>
</filter>
</defs>
</svg>
